<svg id="Group_403" data-name="Group 403" xmlns="http://www.w3.org/2000/svg" width="51" height="51" viewBox="0 0 51 51">
  <path id="Ellipse_1182" data-name="Ellipse 1182" d="M25.5,0A25.5,25.5,0,1,1,0,25.5,25.5,25.5,0,0,1,25.5,0Z" fill="#f5f5f5"/>
  <path id="Icon_metro-language" data-name="Icon metro-language" d="M12.294,14.605q-.011.035-.144-.006t-.362-.132l-.23-.1a6.893,6.893,0,0,1-1-.564q-.081-.058-.472-.362t-.437-.328a19.6,19.6,0,0,1-1.542,2.082A8.552,8.552,0,0,1,6.9,16.457a.912.912,0,0,1-.224.046.443.443,0,0,1-.213,0q.069-.046.943-1.058.242-.276.984-1.323a16.084,16.084,0,0,0,.9-1.358q.2-.345.587-1.133a8.967,8.967,0,0,0,.414-.892,9.454,9.454,0,0,0-1.265.38q-.092.023-.316.086l-.4.109a1.971,1.971,0,0,0-.2.058.2.2,0,0,0-.023.121.255.255,0,0,1-.011.109q-.058.115-.357.173a.928.928,0,0,1-.541,0,.485.485,0,0,1-.322-.242.585.585,0,0,1-.058-.265,2.223,2.223,0,0,1,.282-.058,3.435,3.435,0,0,0,.339-.069q.667-.184,1.208-.368,1.15-.4,1.173-.4a2.552,2.552,0,0,0,.495-.224A5.2,5.2,0,0,1,10.81,9.9q.1-.035.247-.092t.167-.063a.154.154,0,0,1,.069.006,1.309,1.309,0,0,1-.012.38,2.45,2.45,0,0,1-.144.311q-.144.288-.3.615t-.2.385a17.254,17.254,0,0,1-.886,1.507l.736.322q.138.069.857.368l.777.322q.046.011.121.293a.872.872,0,0,1,.052.351ZM9.935,9.014a.467.467,0,0,1-.046.322,1.043,1.043,0,0,1-.575.437,1.847,1.847,0,0,1-.69.138.952.952,0,0,1-.564-.3.865.865,0,0,1-.207-.472l.011-.035a.492.492,0,0,0,.224.058,1,1,0,0,0,.3,0q.115-.023.667-.184a3.285,3.285,0,0,1,.633-.161.227.227,0,0,1,.242.2Zm8.03,1.484.725,2.611-1.6-.483ZM5.219,19.7,13.2,17.032V5.16L5.219,7.841V19.7ZM19.5,16.055l1.173.357L18.587,8.853,17.436,8.5l-2.485,6.166,1.173.357.518-1.265,2.427.748ZM13.709,4.988,20.3,7.1V2.733Zm3.578,15.22,1.818.15L18.483,22.2l-.46-.759a8.528,8.528,0,0,1-3.175,1.242,5.514,5.514,0,0,1-1.047.138h-.966a7.775,7.775,0,0,1-2.3-.449,7.64,7.64,0,0,1-2.111-.978.24.24,0,0,1-.092-.184.222.222,0,0,1,.057-.155.193.193,0,0,1,.15-.063.648.648,0,0,1,.207.086l.351.19q.19.1.236.127a10.193,10.193,0,0,0,1.835.708,6.7,6.7,0,0,0,1.812.282,9.817,9.817,0,0,0,1.921-.167,9.482,9.482,0,0,0,1.806-.581q.173-.081.351-.178t.391-.219q.213-.121.328-.19ZM22.44,7.795V20.208l-8.9-2.83q-.161.069-4.314,1.467t-4.234,1.4a.208.208,0,0,1-.207-.15.088.088,0,0,0-.011-.035V7.656a.514.514,0,0,1,.046-.115.518.518,0,0,1,.23-.127q1.219-.4,1.714-.575V2.422L13.18,4.7q.023,0,1.846-.633t3.635-1.248Q20.473,2.2,20.519,2.2q.23,0,.23.242V7.254Z" transform="translate(11.895 12.989)" fill="#500d34"/>
</svg>
