<svg id="Group_403" data-name="Group 403" xmlns="http://www.w3.org/2000/svg" width="51" height="51" viewBox="0 0 51 51">
  <path id="Ellipse_1182" data-name="Ellipse 1182" d="M25.5,0A25.5,25.5,0,1,1,0,25.5,25.5,25.5,0,0,1,25.5,0Z" fill="#f5f5f5"/>
  <path id="Icon_material-date-range" data-name="Icon material-date-range" d="M10.7,12.305H8.636v2.068H10.7Zm4.136,0H12.771v2.068h2.068Zm4.136,0H16.907v2.068h2.068Zm2.068-7.237H20.009V3H17.941V5.068H9.67V3H7.6V5.068H6.568A2.058,2.058,0,0,0,4.51,7.136L4.5,21.611a2.067,2.067,0,0,0,2.068,2.068H21.043a2.074,2.074,0,0,0,2.068-2.068V7.136A2.074,2.074,0,0,0,21.043,5.068Zm0,16.543H6.568V10.237H21.043Z" transform="translate(11.695 12.161)" fill="#500d34"/>
</svg>
