<svg id="Group_403" data-name="Group 403" xmlns="http://www.w3.org/2000/svg" width="51" height="51" viewBox="0 0 51 51">
  <path id="Ellipse_1182" data-name="Ellipse 1182" d="M25.5,0A25.5,25.5,0,1,1,0,25.5,25.5,25.5,0,0,1,25.5,0Z" fill="#f5f5f5"/>
  <path id="Icon_material-location-on" data-name="Icon material-location-on" d="M16.047,3A8.54,8.54,0,0,0,7.5,11.547c0,6.41,8.547,15.872,8.547,15.872s8.547-9.462,8.547-15.872A8.54,8.54,0,0,0,16.047,3Zm0,11.6A3.052,3.052,0,1,1,19.1,11.547,3.053,3.053,0,0,1,16.047,14.6Z" transform="translate(9.453 10.291)" fill="#500d34"/>
</svg>
