<svg id="Group_403" data-name="Group 403" xmlns="http://www.w3.org/2000/svg" width="51" height="51" viewBox="0 0 51 51">
  <path id="Ellipse_1182" data-name="Ellipse 1182" d="M25.5,0A25.5,25.5,0,1,1,0,25.5,25.5,25.5,0,0,1,25.5,0Z" fill="#f5f5f5"/>
  <path id="Icon_material-work" data-name="Icon material-work" d="M20.275,6.839H16.436V4.919A1.913,1.913,0,0,0,14.516,3H10.678A1.913,1.913,0,0,0,8.758,4.919V6.839H4.919A1.9,1.9,0,0,0,3.01,8.758L3,19.315a1.913,1.913,0,0,0,1.919,1.919H20.275a1.913,1.913,0,0,0,1.919-1.919V8.758A1.913,1.913,0,0,0,20.275,6.839Zm-5.758,0H10.678V4.919h3.839Z" transform="translate(12.903 13.383)" fill="#500d34"/>
</svg>
