<?xml version="1.0" encoding="utf-8"?>
<!-- Generator: Adobe Illustrator 24.3.0, SVG Export Plug-In . SVG Version: 6.00 Build 0)  -->
<svg version="1.1" id="Layer_1" xmlns="http://www.w3.org/2000/svg" xmlns:xlink="http://www.w3.org/1999/xlink" x="0px" y="0px"
	 viewBox="0 0 22.16 92.6" style="enable-background:new 0 0 22.16 92.6;" xml:space="preserve">
<style type="text/css">
	.st0{fill:#46102F;}
	.st1{display:none;fill:#FFFFFF;}
</style>
<path class="st0" d="M22.16-0.04c0,0-0.56,15.99-11.41,24.67h11.42L22.16-0.04z"/>
<path class="st0" d="M22.16,92.6c0,0-0.21-15.92-11.67-24.67h11.67L22.16,92.6z"/>
<path class="st0" d="M22.16,18.68C9.81,21.87,0.68,33.07,0.68,46.39c0,13.32,9.12,24.51,21.47,27.7V18.68z"/>
<path class="st1" d="M18,43.74H5.88c-0.26,0-0.47-0.21-0.47-0.47l0,0c0-0.26,0.21-0.47,0.47-0.47H18c0.26,0,0.47,0.21,0.47,0.47l0,0
	C18.47,43.52,18.26,43.74,18,43.74z"/>
<path class="st1" d="M18,50.85H5.88c-0.26,0-0.47-0.21-0.47-0.47l0,0c0-0.26,0.21-0.47,0.47-0.47H18c0.26,0,0.47,0.21,0.47,0.47l0,0
	C18.47,50.64,18.26,50.85,18,50.85z"/>
<path class="st1" d="M18,47.29H8.09c-0.26,0-0.47-0.21-0.47-0.47l0,0c0-0.26,0.21-0.47,0.47-0.47H18c0.26,0,0.47,0.21,0.47,0.47l0,0
	C18.47,47.08,18.26,47.29,18,47.29z"/>
</svg>
