<svg xmlns="http://www.w3.org/2000/svg" width="62" height="61" viewBox="0 0 62 61">
  <g id="Group_4066" data-name="Group 4066" transform="translate(-331 -830)">
    <rect id="Rectangle_2252" data-name="Rectangle 2252" width="62" height="61" rx="10" transform="translate(331 830)" fill="#d90000"/>
    <path id="Icon_ionic-ios-call" data-name="Icon ionic-ios-call" d="M30.3,24.629a27.549,27.549,0,0,0-5.489-3.74c-1.638-.815-2.231-.812-3.36-.012-.939.668-1.542,1.3-2.647,1.031s-3.308-1.951-5.457-4.093-3.835-4.353-4.093-5.457.37-1.708,1.031-2.647c.8-1.129.811-1.722-.012-3.36A27,27,0,0,0,6.53.862C5.324-.344,5.065-.093,4.421.125A11.28,11.28,0,0,0,2.526,1.1,5.416,5.416,0,0,0,.279,3.479c-.435.976-.923,2.8,1.881,7.66a45.361,45.361,0,0,0,7.7,10.141h0l.008.008.008.008h0A45.538,45.538,0,0,0,20.02,29c4.859,2.8,6.684,2.316,7.66,1.881a5.324,5.324,0,0,0,2.379-2.248,11.28,11.28,0,0,0,.976-1.894C31.253,26.094,31.511,25.835,30.3,24.629Z" transform="translate(384.034 862.496) rotate(135)" fill="#fff"/>
  </g>
</svg>
