<svg xmlns="http://www.w3.org/2000/svg" width="16.174" height="21.005" viewBox="0 0 16.174 21.005"><path d="M4.139,21l.581-.126c.181-.039.361-.074.542-.11.278-.054.557-.108.836-.159.21-.04.42-.074.631-.113l.048-.013c.219-.039.436-.079.654-.105l1.062-.157V0H8.456C7.9,0,7.356.013,6.807.03c-.6.016-1.22.053-1.824.092C4.721.14,4.458.162,4.2.183H4.157V21ZM9.523.013V20.091c.754-.088,1.505-.159,2.26-.215a53.671,53.671,0,0,1,5.577-.132q1.481.045,2.953.168V1.315q-1.318-.3-2.65-.531c-1.722-.3-3.461-.508-5.2-.64Q11,.037,9.524.013h0Zm9.419,12.95-.04,0-.491-.053c-1.224-.128-2.455-.212-3.682-.255s-2.464-.026-3.7.014h-.039a.339.339,0,0,1-.118-.014.519.519,0,0,1-.234-.13.509.509,0,0,1-.137-.433.552.552,0,0,1,.047-.145.43.43,0,0,1,.091-.117.488.488,0,0,1,.125-.091.778.778,0,0,1,.158-.053h.079c.171,0,.342-.014.5-.014,1.221-.025,2.427-.025,3.649.026,1.259.053,2.506.144,3.753.289l.132.013c.039.014.078.014.118.026a.578.578,0,0,1,.223.158.568.568,0,0,1,.092.144.363.363,0,0,1,.039.158.494.494,0,0,1-.144.394.748.748,0,0,1-.118.092.509.509,0,0,1-.145.053.133.133,0,0,1-.078.014h-.041l-.042-.07Zm.031-2.373a.406.406,0,0,1-.079-.005l-.486-.062c-1.221-.157-2.454-.263-3.674-.314s-2.455-.079-3.688-.053l-.04-.014c-.039-.013-.079-.013-.118-.025a.5.5,0,0,1-.222-.145.667.667,0,0,1-.079-.13.518.518,0,0,1,.012-.459.5.5,0,0,1,.092-.131.287.287,0,0,1,.131-.091.373.373,0,0,1,.158-.053l.079-.014.512-.013c1.222-.014,2.428.013,3.635.079,1.259.066,2.507.184,3.754.341l.13.014.08.012a.453.453,0,0,1,.236.145.492.492,0,0,1,.144.393.268.268,0,0,1-.039.144,1.237,1.237,0,0,1-.079.131.469.469,0,0,1-.119.105.5.5,0,0,1-.144.053l-.08.012h-.037l-.08.079Zm0-2.373a.406.406,0,0,1-.079-.005l-.486-.07c-1.221-.166-2.441-.292-3.674-.375s-2.455-.118-3.688-.113h-.04l-.079-.014a.64.64,0,0,1-.144-.06.55.55,0,0,1-.249-.383.6.6,0,0,1,.014-.158.535.535,0,0,1,.052-.149.563.563,0,0,1,.106-.126.518.518,0,0,1,.249-.131.489.489,0,0,1,.118-.013h.5c1.259.008,2.52.056,3.767.151,1.221.092,2.428.228,3.635.4l.131.018a.29.29,0,0,1,.079.017.515.515,0,0,1,.144.07.315.315,0,0,1,.118.108,1.558,1.558,0,0,1,.079.138.515.515,0,0,1-.025.419.467.467,0,0,1-.092.128.476.476,0,0,1-.236.131.2.2,0,0,1-.08.012l-.039,0h-.08Zm0-2.373a.349.349,0,0,1-.079-.006l-.486-.079c-1.221-.2-2.441-.342-3.674-.434s-2.455-.157-3.688-.183h-.04l-.092-.012a.555.555,0,0,1-.144-.065.545.545,0,0,1-.123-.106,1.072,1.072,0,0,1-.082-.13.789.789,0,0,1-.039-.158.547.547,0,0,1,.158-.432.516.516,0,0,1,.244-.131.363.363,0,0,1,.118-.013c.165,0,.333,0,.5.007,1.258.03,2.513.1,3.767.215,1.214.1,2.424.263,3.628.459l.118.014a.173.173,0,0,1,.079.012.587.587,0,0,1,.144.067.456.456,0,0,1,.109.1.553.553,0,0,1,.092.407.65.65,0,0,1-.053.145.451.451,0,0,1-.105.118.526.526,0,0,1-.237.13h-.118l0,.072ZM5.259,5.4a.558.558,0,0,1-.237-.055A.531.531,0,0,1,4.734,4.9a.539.539,0,0,1,.026-.144.4.4,0,0,1,.079-.166.58.58,0,0,1,.144-.142.636.636,0,0,1,.211-.081l.42-.039c.577-.051,1.142-.092,1.706-.126h.053a.475.475,0,0,1,.237.062.517.517,0,0,1,.275.454.548.548,0,0,1-.025.141.414.414,0,0,1-.08.165.483.483,0,0,1-.144.144.59.59,0,0,1-.21.079c-.091.013-.183.013-.275.026-.119.013-.25.013-.382.027L5.745,5.38,5.5,5.407a.708.708,0,0,1-.172.013L5.259,5.4Zm13.7-1.926-.08-.009L18.4,3.376c-1.221-.2-2.455-.372-3.688-.494s-2.454-.2-3.688-.237H10.98L10.9,2.629a.558.558,0,0,1-.144-.062.648.648,0,0,1-.118-.106.494.494,0,0,1-.105-.443.893.893,0,0,1,.065-.158A.521.521,0,0,1,10.7,1.73a.549.549,0,0,1,.249-.131.361.361,0,0,1,.118-.013l.511.013c1.221.053,2.428.131,3.635.263,1.259.13,2.506.314,3.753.525L19.1,2.4a.132.132,0,0,1,.079.014.507.507,0,0,1,.144.065.529.529,0,0,1,.209.368A.317.317,0,0,1,19.521,3a.274.274,0,0,1-.052.144.9.9,0,0,1-.092.118.443.443,0,0,1-.25.118l-.075.012h-.04ZM5.244,2.8a.515.515,0,0,1-.219-.049.5.5,0,0,1-.261-.278.474.474,0,0,1-.034-.137.517.517,0,0,1,.223-.478.524.524,0,0,1,.228-.087c.138-.012.275-.012.414-.025.569-.039,1.139-.066,1.706-.092h.042a.647.647,0,0,1,.224.066.548.548,0,0,1,.263.459.5.5,0,0,1-.026.145.755.755,0,0,1-.091.171.4.4,0,0,1-.159.131.443.443,0,0,1-.223.066,2.17,2.17,0,0,1-.289.012l-.393.027c-.354.025-.7.039-1.038.065l-.263.014a.8.8,0,0,1-.17.013Z" transform="translate(-4.139 0.002)" fill="#500d34"/></svg>