<svg xmlns="http://www.w3.org/2000/svg" width="17.609" height="21.131" viewBox="0 0 17.609 21.131"><path d="M18.848,0H4.761V1.761H18.848ZM4.761,21.131H18.848V19.37H4.761ZM18.848,3.522H4.761A1.766,1.766,0,0,0,3,5.283V15.848a1.766,1.766,0,0,0,1.761,1.761H18.848a1.766,1.766,0,0,0,1.761-1.761V5.283A1.766,1.766,0,0,0,18.848,3.522ZM11.8,5.943A1.981,1.981,0,1,1,9.824,7.924,1.984,1.984,0,0,1,11.8,5.943Zm4.4,9.025H7.4V13.647c0-1.47,2.932-2.2,4.4-2.2s4.4.731,4.4,2.2Z" transform="translate(-3)" fill="#500d34"/></svg>