<svg xmlns="http://www.w3.org/2000/svg" width="12.768" height="18.576" viewBox="0 0 12.768 18.576"><path d="M8.2,0A7.03,7.03,0,0,0,1.956,3.3.872.872,0,0,0,2.144,4.5L3.709,5.682a.871.871,0,0,0,1.206-.15c.909-1.139,1.583-1.794,3-1.794,1.116,0,2.5.718,2.5,1.8,0,.818-.675,1.238-1.778,1.856-1.285.721-2.986,1.617-2.986,3.861v.355a.871.871,0,0,0,.871.871H9.152a.871.871,0,0,0,.871-.871V11.4c0-1.555,4.545-1.62,4.545-5.828C14.568,2.4,11.28,0,8.2,0ZM7.837,13.55a2.513,2.513,0,1,0,2.513,2.513A2.516,2.516,0,0,0,7.837,13.55Z" transform="translate(-1.8)" fill="#500d34"/></svg>