<svg xmlns="http://www.w3.org/2000/svg" width="14.683" height="19.32" viewBox="0 0 14.683 19.32"><g transform="translate(-7.313 -3.938)"><path d="M21.519,8.721h4.4a.239.239,0,0,0,.241-.241h0a1.429,1.429,0,0,0-.517-1.106L21.954,4.3a1.551,1.551,0,0,0-.995-.357h0A.357.357,0,0,0,20.6,4.3V7.8A.917.917,0,0,0,21.519,8.721Z" transform="translate(-4.161 -0.002)" fill="#500d34"/><path d="M15.185,7.8V3.938H8.858A1.55,1.55,0,0,0,7.313,5.483V21.711a1.55,1.55,0,0,0,1.546,1.546H20.45A1.55,1.55,0,0,0,22,21.711V9.975H17.359A2.177,2.177,0,0,1,15.185,7.8Z" fill="#500d34"/></g></svg>