<svg xmlns="http://www.w3.org/2000/svg" xmlns:svgjs="http://svgjs.com/svgjs" xmlns:xlink="http://www.w3.org/1999/xlink"  width="288" height="288" data-name="Layer 1" viewBox="0 0 64 64"><rect width="22" height="28" x="3" y="5" fill="#fce850" class="colorfaf3dd svgShape"/><rect width="36" height="28" x="25" y="5" fill="#50c4ed" class="colora9bcd0 svgShape"/><rect width="16" height="12" x="3" y="41" fill="#fba834" class="colorc5dbf2 svgShape"/><rect width="28" height="20" x="29" y="9" fill="#fce850" class="colorfaf3dd svgShape"/><path fill="#387adf" d="M42.08,17h1.84A3.08,3.08,0,0,1,47,20.08V25a0,0,0,0,1,0,0H39a0,0,0,0,1,0,0V20.08A3.08,3.08,0,0,1,42.08,17Z" class="color325973 svgShape"/><circle cx="43" cy="15" r="3" fill="#387adf" class="color325973 svgShape"/><path fill="#387adf" d="M10.08,50h1.84A3.08,3.08,0,0,1,15,53.08V58a0,0,0,0,1,0,0H7a0,0,0,0,1,0,0V53.08A3.08,3.08,0,0,1,10.08,50Z" class="color325973 svgShape"/><circle cx="11" cy="47" r="3" fill="#387adf" class="color325973 svgShape"/><rect width="16" height="12" x="24" y="41" fill="#fba834" class="colorc5dbf2 svgShape"/><path fill="#387adf" d="M31.08,50h1.84A3.08,3.08,0,0,1,36,53.08V58a0,0,0,0,1,0,0H28a0,0,0,0,1,0,0V53.08A3.08,3.08,0,0,1,31.08,50Z" class="color325973 svgShape"/><circle cx="32" cy="47" r="3" fill="#387adf" class="color325973 svgShape"/><rect width="16" height="12" x="45" y="41" fill="#fba834" class="colorc5dbf2 svgShape"/><path fill="#387adf" d="M52.08,50h1.84A3.08,3.08,0,0,1,57,53.08V58a0,0,0,0,1,0,0H49a0,0,0,0,1,0,0V53.08A3.08,3.08,0,0,1,52.08,50Z" class="color325973 svgShape"/><circle cx="53" cy="47" r="3" fill="#387adf" class="color325973 svgShape"/><path d="M61,4H3A1,1,0,0,0,2,5V33a1,1,0,0,0,1,1H61a1,1,0,0,0,1-1V5A1,1,0,0,0,61,4ZM24,32H4V6H24Zm36,0H26V6H60Z" class="color000 svgShape"/><rect width="14" height="2" x="6" y="8" class="color000 svgShape"/><rect width="10" height="2" x="6" y="14" class="color000 svgShape"/><rect width="6" height="2" x="6" y="20" class="color000 svgShape"/><path d="M6,54.08V59a1,1,0,0,0,1,1h8a1,1,0,0,0,1-1V54.08a4.06,4.06,0,0,0-2-3.48,4,4,0,1,0-6,0A4.06,4.06,0,0,0,6,54.08ZM11,46a2,2,0,1,1-2,2A2,2,0,0,1,11,46ZM8,54.08A2.08,2.08,0,0,1,10.08,52h1.84A2.08,2.08,0,0,1,14,54.08V58H8Z" class="color000 svgShape"/><path d="M3 54H5V52H4V42H18V52H17v2h2a1 1 0 0 0 1-1V41a1 1 0 0 0-1-1H3a1 1 0 0 0-1 1V53A1 1 0 0 0 3 54zM27 54.08V59a1 1 0 0 0 1 1h8a1 1 0 0 0 1-1V54.08a4.06 4.06 0 0 0-2-3.48 4 4 0 1 0-6 0A4.06 4.06 0 0 0 27 54.08zM32 46a2 2 0 1 1-2 2A2 2 0 0 1 32 46zm-3 8.08A2.08 2.08 0 0 1 31.08 52h1.84A2.08 2.08 0 0 1 35 54.08V58H29z" class="color000 svgShape"/><path d="M38 52v2h2a1 1 0 0 0 1-1V41a1 1 0 0 0-1-1H24a1 1 0 0 0-1 1V53a1 1 0 0 0 1 1h2V52H25V42H39V52zM48 54.08V59a1 1 0 0 0 1 1h8a1 1 0 0 0 1-1V54.08a4.06 4.06 0 0 0-2-3.48 4 4 0 1 0-6 0A4.06 4.06 0 0 0 48 54.08zM53 46a2 2 0 1 1-2 2A2 2 0 0 1 53 46zm-3 8.08A2.08 2.08 0 0 1 52.08 52h1.84A2.08 2.08 0 0 1 56 54.08V58H50z" class="color000 svgShape"/><path d="M61 40H45a1 1 0 0 0-1 1V53a1 1 0 0 0 1 1h2V52H46V42H60V52H59v2h2a1 1 0 0 0 1-1V41A1 1 0 0 0 61 40zM46 17.6a4 4 0 1 0-6 0 4.06 4.06 0 0 0-2 3.48V26a1 1 0 0 0 1 1h8a1 1 0 0 0 1-1V21.08A4.06 4.06 0 0 0 46 17.6zM43 13a2 2 0 1 1-2 2A2 2 0 0 1 43 13zm3 12H40V21.08A2.08 2.08 0 0 1 42.08 19h1.84A2.08 2.08 0 0 1 46 21.08z" class="color000 svgShape"/><path d="M29,30H57a1,1,0,0,0,1-1V9a1,1,0,0,0-1-1H29a1,1,0,0,0-1,1V29A1,1,0,0,0,29,30Zm1-20H56V28H30Z" class="color000 svgShape"/></svg>