<svg xmlns="http://www.w3.org/2000/svg" enable-background="new 0 0 512 512" viewBox="0 0 512 512"><path fill="#8ac9fe" fill-rule="evenodd" d="M256,91.757c34.864,0,64.36,22.986,74.159,54.63c1.722,5.559,0.786,11.091-2.667,15.775
				c-3.453,4.685-8.46,7.215-14.28,7.215H198.789c-5.82,0-10.827-2.53-14.28-7.215c-3.453-4.684-4.389-10.216-2.667-15.775
				C191.64,114.743,221.136,91.757,256,91.757z" clip-rule="evenodd"/><path fill="#60b7ff" fill-rule="evenodd" d="M256,91.757c34.864,0,64.359,22.986,74.158,54.63c1.722,5.559,0.786,11.091-2.667,15.776
				c-3.453,4.684-8.46,7.214-14.28,7.214h-20.965c5.82,0,10.827-2.529,14.28-7.214c3.453-4.685,4.389-10.216,2.667-15.776
				c-8.799-28.416-33.484-49.848-63.676-53.924C248.946,92,252.445,91.757,256,91.757z" clip-rule="evenodd"/><ellipse cx="256" cy="42.03" fill="#f6dccd" fill-rule="evenodd" clip-rule="evenodd" rx="39.244" ry="39.245" transform="rotate(-87.146 255.987 42.03)"/><path fill="#f1cbbc" fill-rule="evenodd" d="M256,2.786c21.674,0,39.244,17.571,39.244,39.244S277.674,81.274,256,81.274
				c-1.778,0-3.527-0.12-5.242-0.349c19.196-2.562,34.003-18.999,34.003-38.895S269.954,5.697,250.759,3.135
				C252.473,2.906,254.223,2.786,256,2.786z" clip-rule="evenodd"/><path fill="#8ac9fe" fill-rule="evenodd" d="M429,261.676c34.864,0,64.36,22.986,74.159,54.63c1.722,5.559,0.786,11.091-2.667,15.775
				c-3.453,4.685-8.46,7.215-14.28,7.215H371.789c-5.82,0-10.827-2.53-14.28-7.215c-3.453-4.684-4.389-10.216-2.667-15.775
				C364.64,284.662,394.137,261.676,429,261.676z" clip-rule="evenodd"/><path fill="#60b7ff" fill-rule="evenodd" d="M429,261.676c34.864,0,64.359,22.986,74.158,54.63c1.722,5.559,0.786,11.091-2.667,15.776
				c-3.453,4.685-8.46,7.214-14.28,7.214h-20.965c5.82,0,10.827-2.529,14.28-7.214c3.453-4.685,4.389-10.216,2.667-15.776
				c-8.799-28.417-33.484-49.848-63.676-53.924C421.946,261.919,425.445,261.676,429,261.676z" clip-rule="evenodd"/><circle cx="429" cy="211.949" r="39.244" fill="#f6dccd" fill-rule="evenodd" clip-rule="evenodd"/><path fill="#f1cbbc" fill-rule="evenodd" d="M429,172.705c21.674,0,39.244,17.57,39.244,39.244s-17.57,39.244-39.244,39.244
				c-1.778,0-3.527-0.12-5.241-0.349c19.196-2.562,34.003-18.999,34.003-38.895c0-19.896-14.807-36.333-34.003-38.895
				C425.474,172.825,427.223,172.705,429,172.705z" clip-rule="evenodd"/><g><path fill="#8ac9fe" fill-rule="evenodd" d="M83,261.676c34.864,0,64.36,22.986,74.159,54.63c1.722,5.559,0.786,11.091-2.667,15.775
				c-3.453,4.685-8.46,7.215-14.28,7.215H25.789c-5.82,0-10.827-2.53-14.28-7.215c-3.453-4.684-4.389-10.216-2.667-15.775
				C18.64,284.662,48.137,261.676,83,261.676z" clip-rule="evenodd"/><path fill="#60b7ff" fill-rule="evenodd" d="M83,261.676c34.864,0,64.36,22.986,74.158,54.63c1.722,5.559,0.786,11.091-2.667,15.776
				c-3.453,4.685-8.46,7.214-14.28,7.214h-20.965c5.82,0,10.827-2.529,14.28-7.214c3.453-4.685,4.389-10.216,2.667-15.776
				c-8.799-28.417-33.484-49.848-63.676-53.924C75.946,261.919,79.445,261.676,83,261.676z" clip-rule="evenodd"/><circle cx="83.001" cy="211.949" r="39.244" fill="#f6dccd" fill-rule="evenodd" clip-rule="evenodd" transform="rotate(-14.525 83.018 211.983)"/><path fill="#f1cbbc" fill-rule="evenodd" d="M83,172.705c21.674,0,39.244,17.57,39.244,39.244S104.674,251.193,83,251.193
				c-1.778,0-3.527-0.12-5.242-0.349c19.196-2.562,34.003-18.999,34.003-38.895c0-19.896-14.807-36.333-34.003-38.895
				C79.474,172.825,81.223,172.705,83,172.705z" clip-rule="evenodd"/></g><g><path fill="#8ac9fe" fill-rule="evenodd" d="M256,431.595c34.864,0,64.36,22.986,74.159,54.63c1.722,5.559,0.786,11.091-2.667,15.775
				c-3.453,4.685-8.46,7.214-14.28,7.214H198.789c-5.82,0-10.827-2.53-14.28-7.214c-3.453-4.685-4.389-10.216-2.667-15.775
				C191.64,454.581,221.136,431.595,256,431.595z" clip-rule="evenodd"/><path fill="#60b7ff" fill-rule="evenodd" d="M256,431.595c34.864,0,64.359,22.986,74.158,54.63c1.722,5.559,0.786,11.091-2.667,15.776
				c-3.453,4.685-8.46,7.214-14.28,7.214h-20.965c5.82,0,10.827-2.529,14.28-7.214c3.453-4.685,4.389-10.216,2.667-15.776
				c-8.799-28.416-33.484-49.848-63.676-53.924C248.946,431.838,252.445,431.595,256,431.595z" clip-rule="evenodd"/><ellipse cx="256" cy="381.868" fill="#f6dccd" fill-rule="evenodd" clip-rule="evenodd" rx="39.244" ry="39.245" transform="rotate(-87.146 255.985 381.851)"/><path fill="#f1cbbc" fill-rule="evenodd" d="M256,342.624c21.674,0,39.244,17.571,39.244,39.244s-17.57,39.244-39.244,39.244
				c-1.778,0-3.527-0.12-5.242-0.349c19.196-2.562,34.003-18.999,34.003-38.895s-14.807-36.333-34.003-38.895
				C252.473,342.744,254.223,342.624,256,342.624z" clip-rule="evenodd"/></g><path fill-rule="evenodd" d="M144.009,467.961c0,4.42-3.576,7.997-7.997,7.997H78.574c-23.452,0-42.531-19.079-42.531-42.526v-57.444
		c0-4.416,3.576-7.996,7.997-7.996c4.421,0,8.001,3.581,8.001,7.996v57.444c0,14.63,11.898,26.528,26.533,26.528h57.439
		C140.433,459.959,144.009,463.54,144.009,467.961L144.009,467.961z M475.962,375.987v57.444c0,23.447-19.083,42.526-42.531,42.526
		h-57.439c-4.421,0-8.001-3.576-8.001-7.997c0-4.421,3.581-8.002,8.001-8.002h57.439c14.63,0,26.528-11.898,26.528-26.528v-57.444
		c0-4.416,3.581-7.996,8.001-7.996C472.382,367.991,475.962,371.572,475.962,375.987L475.962,375.987z M367.991,44.039
		c0-4.421,3.581-8.001,8.001-8.001h57.439c23.447,0,42.531,19.083,42.531,42.536v57.439c0,4.416-3.581,7.997-8.001,7.997
		c-4.42,0-8.001-3.581-8.001-7.997V78.573c0-14.63-11.898-26.533-26.528-26.533h-57.439
		C371.572,52.04,367.991,48.455,367.991,44.039L367.991,44.039z M36.043,136.012V78.573c0-23.452,19.079-42.536,42.531-42.536
		h57.439c4.421,0,7.997,3.581,7.997,8.001c0,4.416-3.576,8.001-7.997,8.001H78.574c-14.635,0-26.533,11.903-26.533,26.533v57.439
		c0,4.416-3.581,7.997-8.001,7.997C39.619,144.009,36.043,140.428,36.043,136.012L36.043,136.012z M148.1,322.138
		c-1.84,2.501-4.708,3.944-7.869,3.944H25.772c-3.161,0-6.029-1.444-7.883-3.944c-1.835-2.51-2.368-5.671-1.43-8.69
		c9.072-29.312,35.813-49.008,66.53-49.013h0.014h0.009c30.718,0.005,57.449,19.701,66.526,49.013
		C150.482,316.468,149.949,319.629,148.1,322.138L148.1,322.138z M51.739,217.177c0-17.239,14.021-31.26,31.265-31.26
		c17.234,0,31.255,14.021,31.255,31.26c0,17.229-14.021,31.25-31.246,31.255h-0.009h-0.014
		C65.76,248.428,51.739,234.406,51.739,217.177L51.739,217.177z M134.291,265.483c-6.638-4.968-13.842-8.884-21.433-11.71
		c10.615-8.671,17.404-21.857,17.404-36.596c0-26.056-21.202-47.258-47.258-47.258c-26.061,0-47.263,21.202-47.263,47.258
		c0,14.738,6.789,27.925,17.399,36.596c-7.591,2.826-14.8,6.742-21.428,11.71c-14.403,10.785-25.24,26.137-30.543,43.239
		c-2.449,7.916-1.047,16.267,3.84,22.91c4.902,6.638,12.46,10.45,20.763,10.45H140.23c8.289,0,15.861-3.812,20.749-10.45
		c4.902-6.643,6.303-14.993,3.854-22.91C159.531,291.619,148.689,276.267,134.291,265.483L134.291,265.483z M494.098,322.138
		c-1.835,2.501-4.708,3.944-7.865,3.944H371.77c-3.161,0-6.029-1.444-7.879-3.944c-1.84-2.51-2.368-5.671-1.43-8.69
		c9.068-29.312,35.808-49.008,66.53-49.013h0.009h0.009c30.718,0.005,57.449,19.701,66.53,49.013
		C496.48,316.468,495.952,319.629,494.098,322.138L494.098,322.138z M397.741,217.177c0-17.239,14.021-31.26,31.26-31.26
		c17.239,0,31.26,14.021,31.26,31.26c0,17.229-14.021,31.25-31.251,31.255h-0.009h-0.009
		C411.763,248.428,397.741,234.406,397.741,217.177L397.741,217.177z M510.832,308.721c-5.298-17.102-16.14-32.454-30.538-43.239
		c-6.643-4.968-13.842-8.884-21.433-11.71c10.61-8.671,17.399-21.857,17.399-36.596c0-26.056-21.202-47.258-47.258-47.258
		c-26.061,0-47.263,21.202-47.263,47.258c0,14.738,6.794,27.925,17.404,36.596c-7.591,2.826-14.8,6.742-21.433,11.71
		c-14.399,10.785-25.24,26.137-30.538,43.239c-2.449,7.916-1.052,16.267,3.84,22.91c4.897,6.638,12.46,10.45,20.758,10.45h114.463
		c8.289,0,15.857-3.812,20.749-10.45C511.879,324.988,513.28,316.638,510.832,308.721L510.832,308.721z M321.101,492.059
		c-1.84,2.5-4.708,3.939-7.869,3.939H198.769c-3.156,0-6.03-1.439-7.879-3.939c-1.84-2.51-2.368-5.68-1.43-8.69
		c9.068-29.316,35.808-49.009,66.53-49.018H256h0.009c30.722,0.009,57.448,19.706,66.53,49.018
		C323.479,486.379,322.95,489.549,321.101,492.059L321.101,492.059z M224.74,387.103c0-17.244,14.021-31.265,31.26-31.265
		c17.239,0,31.26,14.021,31.26,31.265c0,17.225-14.021,31.246-31.251,31.246H256h-0.01
		C238.761,418.348,224.74,404.327,224.74,387.103L224.74,387.103z M307.292,435.398c-6.643-4.958-13.842-8.879-21.433-11.709
		c10.61-8.671,17.404-21.848,17.404-36.586c0-26.061-21.202-47.263-47.263-47.263c-26.061,0-47.258,21.202-47.258,47.263
		c0,14.738,6.789,27.915,17.399,36.586c-7.591,2.831-14.8,6.751-21.428,11.709c-14.403,10.78-25.24,26.141-30.543,43.243
		c-2.449,7.917-1.047,16.267,3.84,22.91c4.902,6.638,12.46,10.45,20.758,10.45h114.463c8.289,0,15.861-3.812,20.749-10.45
		c4.902-6.643,6.303-14.993,3.84-22.91C332.532,461.54,321.691,446.179,307.292,435.398L307.292,435.398z M321.101,152.218
		c-1.84,2.505-4.708,3.944-7.869,3.944H198.769c-3.156,0-6.03-1.439-7.879-3.944c-1.84-2.505-2.368-5.671-1.43-8.69
		c9.082-29.316,35.822-49.013,66.54-49.013c30.717,0,57.458,19.697,66.54,49.018C323.479,146.547,322.95,149.713,321.101,152.218
		L321.101,152.218z M256,16.001c17.239,0,31.26,14.021,31.26,31.255c0,17.239-14.021,31.26-31.26,31.26
		c-17.239,0-31.26-14.021-31.26-31.26C224.74,30.023,238.761,16.001,256,16.001L256,16.001z M307.292,95.567
		c-6.643-4.968-13.842-8.888-21.433-11.714c10.61-8.671,17.404-21.853,17.404-36.596c0-26.056-21.202-47.258-47.263-47.258
		c-26.061,0-47.258,21.202-47.258,47.258c0,14.743,6.789,27.924,17.399,36.596c-7.591,2.826-14.79,6.746-21.428,11.714
		c-14.403,10.78-25.24,26.132-30.543,43.229c-2.449,7.926-1.047,16.276,3.84,22.919c4.902,6.638,12.46,10.45,20.758,10.45h114.463
		c8.289,0,15.861-3.812,20.749-10.455c4.902-6.638,6.303-14.988,3.84-22.914C332.532,121.699,321.691,106.347,307.292,95.567z" clip-rule="evenodd"/></svg>