<svg xmlns="http://www.w3.org/2000/svg" width="32" height="32"><g transform="translate(-619.5 -34.5)"><path fill="none" stroke="#000" stroke-linecap="round" stroke-linejoin="round" stroke-width="1.033" d="M620.016 38.016h30.967v24.967h-30.967z"/><path fill="none" stroke="#000" d="M620.5 42h30.781"/><circle cx="648" cy="40" r=".5"/><circle cx="646" cy="40.02" r=".5"/><circle cx="644" cy="40" r=".5"/></g><path fill="#4bbfeb" d="M22.5 17.5a6.5 6.5 0 1 1-13 0 6.5 6.5 0 0 1 13 0z"/><path fill="none" stroke="#2b4255" stroke-linecap="round" stroke-linejoin="round" d="M14 15.701c-.027-1.186.846-2.17 1.95-2.2 1.105-.028 2.022.908 2.05 2.094-.072 1.501-.947 1.879-2.006 2.63V19.5"/><path fill="#2b4255" d="M16.5 21.5a.5.5 0 1 1-1 0 .5.5 0 0 1 1 0z"/></svg>