<svg xmlns="http://www.w3.org/2000/svg" width="23.423" height="21.75" viewBox="0 0 23.423 21.75"><path d="M24.784,10.9H17.093L14.756,3.929a.847.847,0,0,0-1.589,0L10.83,10.9H3.087a.839.839,0,0,0-.837.837.615.615,0,0,0,.016.141.8.8,0,0,0,.35.591l6.321,4.455L6.511,23.98a.839.839,0,0,0,.288.941.809.809,0,0,0,.471.2,1.025,1.025,0,0,0,.523-.188l6.169-4.4,6.169,4.4a.98.98,0,0,0,.523.188.751.751,0,0,0,.465-.2.829.829,0,0,0,.288-.941l-2.426-7.053,6.269-4.5L25.4,12.3a.877.877,0,0,0,.272-.559A.885.885,0,0,0,24.784,10.9Zm-6.65,4.836A1.468,1.468,0,0,0,17.6,17.4l1.574,4.585a.21.21,0,0,1-.319.241l-4.047-2.886a1.461,1.461,0,0,0-.852-.272,1.434,1.434,0,0,0-.847.272L9.063,22.223a.209.209,0,0,1-.319-.241L10.317,17.4a1.473,1.473,0,0,0-.539-1.673L5.544,12.739a.21.21,0,0,1,.12-.382h5.16a1.462,1.462,0,0,0,1.386-1l1.548-4.611a.21.21,0,0,1,.4,0L15.7,11.359a1.462,1.462,0,0,0,1.386,1h5.087a.207.207,0,0,1,.12.376Z" transform="translate(-2.25 -3.375)" fill="#500d34"/></svg>