<svg xmlns="http://www.w3.org/2000/svg" width="31" height="30" viewBox="0 0 31 30"><g transform="translate(0.499 -0.177)"><rect width="31" height="30" transform="translate(-0.499 0.177)" fill="none"/><g transform="translate(3.791 3.791)"><path d="M21.293,16.929a11.387,11.387,0,1,0-4.364,4.364l5.818,1.455Z" fill="none" stroke="#500d34" stroke-linecap="round" stroke-linejoin="round" stroke-width="1.5" fill-rule="evenodd"/><path d="M.363.363a.316.316,0,1,1,0,.447A.316.316,0,0,1,.363.363Z" transform="translate(10.788 11.419)" fill="none" stroke="#500d34" stroke-linecap="round" stroke-linejoin="round" stroke-width="1.5" fill-rule="evenodd"/><path d="M.363.363a.316.316,0,1,1,0,.447A.316.316,0,0,1,.363.363Z" transform="translate(5.732 11.419)" fill="none" stroke="#500d34" stroke-linecap="round" stroke-linejoin="round" stroke-width="1.5" fill-rule="evenodd"/><path d="M.363.363a.316.316,0,1,1,0,.447A.316.316,0,0,1,.363.363Z" transform="translate(15.843 11.419)" fill="none" stroke="#500d34" stroke-linecap="round" stroke-linejoin="round" stroke-width="1.5" fill-rule="evenodd"/></g></g></svg>