<svg xmlns="http://www.w3.org/2000/svg" width="20.248" height="24.831" viewBox="0 0 20.248 24.831"><g transform="translate(0.792 0.75)"><path d="M2.593,18.665H16.072c2.133,0,3.35-2.145,2.071-3.649a4.264,4.264,0,0,1-1.01-2.283l-.522-4.6A6.626,6.626,0,0,0,11.98,2.769V2.648a2.648,2.648,0,0,0-5.3,0v.121A6.626,6.626,0,0,0,2.054,8.137l-.522,4.6a4.264,4.264,0,0,1-1.01,2.283C-.757,16.519.46,18.665,2.593,18.665Z" transform="translate(0 0)" fill="none" stroke="#500d34" stroke-linecap="round" stroke-width="1.5"/><path d="M12,18a3.7,3.7,0,0,1-3.5,2.333A3.7,3.7,0,0,1,5,18" transform="translate(0.833 2.998)" fill="none" stroke="#500d34" stroke-linecap="round" stroke-width="1.5"/></g></svg>