<svg xmlns="http://www.w3.org/2000/svg" width="16.405" height="12.303" viewBox="0 0 16.405 12.303"><path d="M6.89,4.726,4.039,7.576H.769A.769.769,0,0,0,0,8.345v4.614a.769.769,0,0,0,.769.769h3.27l2.851,2.85A.769.769,0,0,0,8.2,16.034V5.27A.769.769,0,0,0,6.89,4.726Zm7.9,5.926L16.253,9.19a.517.517,0,0,0,0-.731l-.731-.731a.517.517,0,0,0-.731,0L13.329,9.19,11.866,7.727a.517.517,0,0,0-.731,0l-.731.731a.517.517,0,0,0,0,.731l1.462,1.462L10.4,12.114a.517.517,0,0,0,0,.731l.731.731a.517.517,0,0,0,.731,0l1.462-1.462,1.462,1.462a.517.517,0,0,0,.731,0l.731-.731a.517.517,0,0,0,0-.731Z" transform="translate(0 -4.5)" fill="#500d34"/></svg>