<svg xmlns="http://www.w3.org/2000/svg" width="20.573" height="20.573" viewBox="0 0 20.573 20.573"><g transform="translate(0.75 0.75)"><path d="M19.073,16.954V15.21a2.119,2.119,0,0,0-1.332-1.968l-2.155-.862A2.119,2.119,0,0,0,12.9,13.4l-.188.375a10.365,10.365,0,0,1-4.768-2.649A10.365,10.365,0,0,1,5.3,6.358l.375-.188a2.119,2.119,0,0,0,1.02-2.683L5.831,1.332A2.119,2.119,0,0,0,3.863,0H2.119A2.119,2.119,0,0,0,0,2.119,16.954,16.954,0,0,0,16.954,19.073,2.119,2.119,0,0,0,19.073,16.954Z" transform="translate(0 0)" fill="#fff" stroke="#989e9c" stroke-width="1.5"/><path d="M14.238,8.477A4.238,4.238,0,0,0,10,4.238m8.477,4.238A8.477,8.477,0,0,0,10,0" transform="translate(0.596 0)" fill="#fff" stroke="#989e9c" stroke-width="1.5"/></g></svg>