<svg xmlns="http://www.w3.org/2000/svg" width="23.006" height="20.856" viewBox="0 0 23.006 20.856"><g transform="translate(0.75 0.75)"><path d="M13.452,10.726A3.226,3.226,0,1,1,10.226,7.5,3.226,3.226,0,0,1,13.452,10.726Z" transform="translate(0.527 0.565)" fill="none" stroke="#000e08" stroke-width="1.5"/><path d="M6.889.958,5.377,3.226H4.3A4.3,4.3,0,0,0,0,7.527v7.527a4.3,4.3,0,0,0,4.3,4.3h12.9a4.3,4.3,0,0,0,4.3-4.3V7.527a4.3,4.3,0,0,0-4.3-4.3H16.13L14.618.958A2.151,2.151,0,0,0,12.828,0H8.678A2.151,2.151,0,0,0,6.889.958Z" transform="translate(0 0)" fill="none" stroke="#000e08" stroke-width="1.5"/><circle cx="1" cy="1" r="1" transform="translate(10.343 2.443)" fill="#000e08"/></g></svg>