<svg xmlns="http://www.w3.org/2000/svg" width="23.241" height="23.236" viewBox="0 0 23.241 23.236">
  <path id="Icon_ionic-ios-globe" data-name="Icon ionic-ios-globe" d="M14.693,3.375h-.038a11.318,11.318,0,0,0,.005,22.636H14.7a11.318,11.318,0,1,0-.005-22.636ZM24.5,13.931H20.276a21.428,21.428,0,0,0-.533-4.146,16.576,16.576,0,0,0,2.7-1.143A9.748,9.748,0,0,1,24.5,13.931Zm-10.567,0H10.568a19.341,19.341,0,0,1,.479-3.76,16.555,16.555,0,0,0,2.884.386Zm0,1.524v3.368a16.625,16.625,0,0,0-2.884.386,19.338,19.338,0,0,1-.479-3.755Zm1.524,0H18.79a19.227,19.227,0,0,1-.479,3.749,16.242,16.242,0,0,0-2.857-.381Zm0-1.524V10.558a16.625,16.625,0,0,0,2.857-.381,19.284,19.284,0,0,1,.479,3.755Zm5.953-6.415a15.116,15.116,0,0,1-2.068.843A11.235,11.235,0,0,0,17.9,5.394,9.846,9.846,0,0,1,21.408,7.516ZM17.9,8.751a15.314,15.314,0,0,1-2.449.326V5.084A6.593,6.593,0,0,1,17.9,8.751ZM13.931,5.062v4.01a15.05,15.05,0,0,1-2.476-.332A6.59,6.59,0,0,1,13.931,5.062ZM11.45,5.41a11.324,11.324,0,0,0-1.431,2.944,15.456,15.456,0,0,1-2.04-.838A9.7,9.7,0,0,1,11.45,5.41ZM6.939,8.648A16.248,16.248,0,0,0,9.616,9.779a20.565,20.565,0,0,0-.533,4.146H4.893A9.7,9.7,0,0,1,6.939,8.648ZM4.888,15.455h4.19A21.373,21.373,0,0,0,9.611,19.6a17.239,17.239,0,0,0-2.677,1.132A9.75,9.75,0,0,1,4.888,15.455ZM7.973,21.87a15.228,15.228,0,0,1,2.046-.838,11.364,11.364,0,0,0,1.431,2.949A9.94,9.94,0,0,1,7.973,21.87Zm3.482-1.23a15.129,15.129,0,0,1,2.476-.332v4.016A6.58,6.58,0,0,1,11.455,20.64Zm4,3.662v-4a15.314,15.314,0,0,1,2.449.326A6.59,6.59,0,0,1,15.455,24.3Zm2.449-.31a11.235,11.235,0,0,0,1.442-2.966,14.867,14.867,0,0,1,2.068.849A9.959,9.959,0,0,1,17.9,23.992Zm4.543-3.254a16.576,16.576,0,0,0-2.7-1.143,21.316,21.316,0,0,0,.533-4.141H24.5A9.706,9.706,0,0,1,22.447,20.738Z" transform="translate(-3.075 -3.075)" fill="none" stroke="#000" stroke-width="0.6"/>
</svg>
