<svg xmlns="http://www.w3.org/2000/svg" width="16.467" height="16.465" viewBox="0 0 16.467 16.465"><path d="M20.481,17.4a13.831,13.831,0,0,0-2.889-1.933c-.866-.416-1.183-.407-1.8.034-.51.369-.84.712-1.427.583A8.515,8.515,0,0,1,11.5,13.957,8.454,8.454,0,0,1,9.379,11.09c-.124-.592.219-.917.583-1.427.442-.613.454-.93.034-1.8A13.557,13.557,0,0,0,8.063,4.977c-.63-.63-.772-.493-1.119-.369a6.367,6.367,0,0,0-1.025.544,3.091,3.091,0,0,0-1.23,1.3c-.244.527-.527,1.509.913,4.072a22.723,22.723,0,0,0,4,5.328h0l0,0,0,0h0a22.812,22.812,0,0,0,5.328,4c2.563,1.44,3.545,1.157,4.072.913a3.038,3.038,0,0,0,1.3-1.23,6.366,6.366,0,0,0,.544-1.025C20.974,18.167,21.115,18.025,20.481,17.4Z" transform="translate(-4.49 -4.502)" fill="#fff"/></svg>