<svg xmlns="http://www.w3.org/2000/svg" width="24.726" height="23.929" viewBox="0 0 24.726 23.929"><rect width="24.726" height="23.929" fill="none"/><g transform="translate(3.422 2.883)"><path d="M16.984,13.5A9.083,9.083,0,1,0,13.5,16.984l4.641,1.16Z" fill="none" stroke="#500d34" stroke-linecap="round" stroke-linejoin="round" stroke-width="1.5" fill-rule="evenodd"/><path d="M.344.344A.252.252,0,1,1,.344.7.252.252,0,0,1,.344.344Z" transform="translate(8.55 9.053)" fill="none" stroke="#500d34" stroke-linecap="round" stroke-linejoin="round" stroke-width="1.5" fill-rule="evenodd"/><path d="M.344.344A.252.252,0,1,1,.344.7.252.252,0,0,1,.344.344Z" transform="translate(4.518 9.053)" fill="none" stroke="#500d34" stroke-linecap="round" stroke-linejoin="round" stroke-width="1.5" fill-rule="evenodd"/><path d="M.344.344A.252.252,0,1,1,.344.7.252.252,0,0,1,.344.344Z" transform="translate(12.582 9.053)" fill="none" stroke="#500d34" stroke-linecap="round" stroke-linejoin="round" stroke-width="1.5" fill-rule="evenodd"/></g></svg>