<svg xmlns="http://www.w3.org/2000/svg" width="27.264" height="28" viewBox="0 0 27.264 28"><rect width="27" height="28" transform="translate(0.07)" fill="none"/><g transform="translate(0 0.44)"><g transform="translate(3.408 7.1)"><path d="M11.5,13.064H2.556A2.555,2.555,0,0,1,0,10.508V2.556A2.555,2.555,0,0,1,2.556,0H11.5a2.555,2.555,0,0,1,2.556,2.556v7.952A2.555,2.555,0,0,1,11.5,13.064Z" fill="none" stroke="#500d34" stroke-linecap="round" stroke-linejoin="round" stroke-width="1.5" fill-rule="evenodd"/><path d="M0,6.247,4.311,9.716a1.277,1.277,0,0,0,2.079-1V1.28a1.277,1.277,0,0,0-2.079-1L0,3.755" transform="translate(14.058 1.531)" fill="none" stroke="#500d34" stroke-linecap="round" stroke-linejoin="round" stroke-width="1.5" fill-rule="evenodd"/></g><path d="M0,0H27.264V27.264H0Z" fill="none" fill-rule="evenodd"/></g></svg>