<svg xmlns="http://www.w3.org/2000/svg" width="26.603" height="26.138" viewBox="0 0 26.603 26.138"><g transform="translate(0 0)"><rect width="26" height="26" transform="translate(0.603 0)" fill="none"/><g transform="translate(0 0.331)"><path d="M10.359,5.781l-5.9,5.9a2.275,2.275,0,0,0,0,3.217h0a2.275,2.275,0,0,0,3.217,0l7.777-7.777a4.171,4.171,0,0,0,0-5.9h0a4.171,4.171,0,0,0-5.9,0L1.777,9a6.067,6.067,0,0,0,0,8.581h0a6.067,6.067,0,0,0,8.581,0l4.72-4.72" transform="translate(4.566 3.225)" fill="none" stroke="#000e08" stroke-linecap="round" stroke-linejoin="round" stroke-width="1.5" fill-rule="evenodd"/><path d="M0,0H25.808V25.808H0Z" fill="none" fill-rule="evenodd"/></g></g></svg>