<svg xmlns="http://www.w3.org/2000/svg" width="21.948" height="21.948" viewBox="0 0 21.948 21.948"><path d="M20.448,18.176v-1.87A2.272,2.272,0,0,0,19.02,14.2l-2.311-.924a2.272,2.272,0,0,0-2.876,1.093l-.2.4a11.113,11.113,0,0,1-5.112-2.84A11.113,11.113,0,0,1,5.68,6.816l.4-.2A2.272,2.272,0,0,0,7.176,3.739L6.251,1.428A2.272,2.272,0,0,0,4.142,0H2.272A2.272,2.272,0,0,0,0,2.272,18.176,18.176,0,0,0,18.176,20.448,2.272,2.272,0,0,0,20.448,18.176Z" transform="translate(0.75 0.75)" fill="none" stroke="#500d34" stroke-linejoin="round" stroke-width="1.5"/></svg>