<svg xmlns="http://www.w3.org/2000/svg" width="26" height="25.431" viewBox="0 0 26 25.431"><g transform="translate(0.493)"><rect width="26" height="25" transform="translate(-0.493 0.082)" fill="none"/><g transform="translate(0 0)"><g transform="translate(3.179 6.623)"><path d="M10.729,12.186H2.384A2.384,2.384,0,0,1,0,9.8V2.384A2.384,2.384,0,0,1,2.384,0h8.344a2.384,2.384,0,0,1,2.384,2.384V9.8A2.384,2.384,0,0,1,10.729,12.186Z" fill="#fff" stroke="#989e9c" stroke-linecap="round" stroke-linejoin="round" stroke-width="1.5" fill-rule="evenodd"/><path d="M0,5.827,4.021,9.063A1.191,1.191,0,0,0,5.96,8.135V1.194A1.191,1.191,0,0,0,4.021.266L0,3.5" transform="translate(13.113 1.428)" fill="#fff" stroke="#989e9c" stroke-linecap="round" stroke-linejoin="round" stroke-width="1.5" fill-rule="evenodd"/></g><path d="M0,0H25.431V25.431H0Z" fill="none" fill-rule="evenodd"/></g></g></svg>