<svg xmlns="http://www.w3.org/2000/svg" width="49.468" height="57.714" viewBox="0 0 49.468 57.714">
  <path id="Icon_metro-file-audio" data-name="Icon metro-file-audio" d="M49.849,14.442a7.494,7.494,0,0,1,1.546,2.448,7.433,7.433,0,0,1,.644,2.834v37.1a3.079,3.079,0,0,1-3.092,3.092H5.662a2.982,2.982,0,0,1-2.19-.9,2.982,2.982,0,0,1-.9-2.19V5.3a2.982,2.982,0,0,1,.9-2.19,2.982,2.982,0,0,1,2.19-.9H34.519a7.435,7.435,0,0,1,2.834.644A7.494,7.494,0,0,1,39.8,4.394ZM35.55,6.583V18.693H47.659a3.519,3.519,0,0,0-.708-1.32L36.87,7.292a3.518,3.518,0,0,0-1.32-.709ZM47.917,55.794V22.815h-13.4a3.079,3.079,0,0,1-3.092-3.092V6.326H6.693V55.794H47.917ZM22.538,29.578a.956.956,0,0,1,.644.966v17.52a.956.956,0,0,1-.644.966,1.761,1.761,0,0,1-.386.064,1.156,1.156,0,0,1-.741-.29l-5.346-5.378H11.846A.992.992,0,0,1,10.815,42.4V36.213a.992.992,0,0,1,1.031-1.031h4.219L21.411,29.8a.979.979,0,0,1,1.127-.225Zm13.43,22.19A1.954,1.954,0,0,0,37.579,51a18.526,18.526,0,0,0,0-23.382,1.937,1.937,0,0,0-1.385-.773,1.915,1.915,0,0,0-1.514.451,1.977,1.977,0,0,0-.757,1.4,2.042,2.042,0,0,0,.467,1.53,14.416,14.416,0,0,1,0,18.164,2.042,2.042,0,0,0-.467,1.53,1.871,1.871,0,0,0,.757,1.369,1.964,1.964,0,0,0,1.288.483ZM29.173,47a2.072,2.072,0,0,0,1.514-.644,10.278,10.278,0,0,0,0-14.106,2.023,2.023,0,0,0-1.449-.644,1.963,1.963,0,0,0-1.481.547,2.06,2.06,0,0,0-.064,2.931,6.152,6.152,0,0,1,0,8.438,2.06,2.06,0,0,0,.064,2.931A2.139,2.139,0,0,0,29.173,47Z" transform="translate(-2.571 -2.203)" fill="#fff"/>
</svg>
