43<svg xmlns="http://www.w3.org/2000/svg" width="18.362" height="18.316" viewBox="0 0 18.362 18.316">
  <path id="Icon_material-slow-motion-video" data-name="Icon material-slow-motion-video" d="M13.2,10.2,10.392,8.091v8.284L13.2,14.267l2.715-2.034Zm0,0L10.392,8.091v8.284L13.2,14.267l2.715-2.034Zm0,0L10.392,8.091v8.284L13.2,14.267l2.715-2.034ZM11.313,4.934V3.075a9.157,9.157,0,0,0-4.9,2.034L7.723,6.425a7.309,7.309,0,0,1,3.59-1.491ZM6.425,7.723,5.109,6.416a9.157,9.157,0,0,0-2.034,4.9H4.934A7.309,7.309,0,0,1,6.425,7.723Zm-1.491,5.43H3.075a9.157,9.157,0,0,0,2.034,4.9l1.316-1.316a7.242,7.242,0,0,1-1.491-3.58Zm1.482,6.2a9.187,9.187,0,0,0,4.9,2.034V19.532a7.309,7.309,0,0,1-3.59-1.491Zm15.021-7.124A9.218,9.218,0,0,1,13.2,21.391V19.532a7.362,7.362,0,0,0,0-14.6V3.075A9.218,9.218,0,0,1,21.437,12.233Z" transform="translate(-3.075 -3.075)"/>
</svg>
