<svg xmlns="http://www.w3.org/2000/svg" width="16.966" height="21.236" viewBox="0 0 16.966 21.236"><g transform="translate(-6.775 -3.93)"><path d="M18.98,28.336a.687.687,0,0,0-.674.541,1.33,1.33,0,0,1-.265.579,1,1,0,0,1-.855.313,1.02,1.02,0,0,1-.855-.313,1.33,1.33,0,0,1-.265-.579.687.687,0,0,0-.674-.541h0a.692.692,0,0,0-.674.844,2.372,2.372,0,0,0,2.468,1.969,2.367,2.367,0,0,0,2.468-1.969.7.7,0,0,0-.674-.844Z" transform="translate(-1.943 -5.983)" fill="#500d34"/><path d="M23.528,19.657c-.817-1.077-2.426-1.709-2.426-6.534,0-4.952-2.187-6.942-4.225-7.42-.191-.048-.329-.111-.329-.313V5.236A1.3,1.3,0,0,0,15.275,3.93h-.032a1.3,1.3,0,0,0-1.274,1.306V5.39c0,.2-.138.265-.329.313-2.043.483-4.225,2.468-4.225,7.42,0,4.825-1.608,5.451-2.426,6.534a1.054,1.054,0,0,0,.844,1.688H22.7A1.054,1.054,0,0,0,23.528,19.657Zm-2.07.308H9.081a.233.233,0,0,1-.175-.387A6.43,6.43,0,0,0,10.02,17.8a12.028,12.028,0,0,0,.759-4.681,8.14,8.14,0,0,1,1.109-4.607,3.406,3.406,0,0,1,2.054-1.465,1.86,1.86,0,0,0,.987-.557.42.42,0,0,1,.632-.011,1.923,1.923,0,0,0,1,.568,3.406,3.406,0,0,1,2.054,1.465,8.14,8.14,0,0,1,1.109,4.607,12.028,12.028,0,0,0,.759,4.681,6.5,6.5,0,0,0,1.141,1.8A.219.219,0,0,1,21.458,19.965Z" fill="#500d34"/></g></svg>