<svg xmlns="http://www.w3.org/2000/svg" width="16.404" height="13.671" viewBox="0 0 16.404 13.671">
  <path id="Icon_awesome-volume-up" data-name="Icon awesome-volume-up" d="M6.124,2.693,3.59,5.226H.684A.683.683,0,0,0,0,5.909v4.1a.684.684,0,0,0,.684.684H3.59l2.534,2.533a.684.684,0,0,0,1.167-.483V3.176A.684.684,0,0,0,6.124,2.693Zm6.645-1.455a.689.689,0,1,0-.756,1.152,6.654,6.654,0,0,1,0,11.14.689.689,0,1,0,.756,1.152,8.033,8.033,0,0,0,0-13.444Zm.9,6.722a5.258,5.258,0,0,0-2.443-4.45.681.681,0,0,0-.943.212.692.692,0,0,0,.211.95,3.892,3.892,0,0,1,0,6.574.692.692,0,0,0-.211.95.682.682,0,0,0,.943.212A5.258,5.258,0,0,0,13.67,7.96ZM9.633,5.771a.684.684,0,1,0-.66,1.2,1.123,1.123,0,0,1,0,1.983.684.684,0,0,0,.66,1.2,2.49,2.49,0,0,0,0-4.378Z" transform="translate(0 -1.125)" fill="#500d34"/>
</svg>
