<svg xmlns="http://www.w3.org/2000/svg" width="30" height="30" viewBox="0 0 30 30"><rect width="30" height="30" fill="none"/><g transform="translate(3.716 3.996)"><path d="M20.736,16.486a11.089,11.089,0,1,0-4.249,4.249l5.666,1.416Z" fill="none" stroke="#500d34" stroke-linecap="round" stroke-linejoin="round" stroke-width="1.5" fill-rule="evenodd"/><path d="M.36.361A.308.308,0,1,1,.36.8.308.308,0,0,1,.36.361Z" transform="translate(10.498 11.113)" fill="none" stroke="#500d34" stroke-linecap="round" stroke-linejoin="round" stroke-width="1.5" fill-rule="evenodd"/><path d="M.36.361A.308.308,0,1,1,.36.8.308.308,0,0,1,.36.361Z" transform="translate(5.575 11.113)" fill="none" stroke="#500d34" stroke-linecap="round" stroke-linejoin="round" stroke-width="1.5" fill-rule="evenodd"/><path d="M.36.361A.308.308,0,1,1,.36.8.308.308,0,0,1,.36.361Z" transform="translate(15.421 11.113)" fill="none" stroke="#500d34" stroke-linecap="round" stroke-linejoin="round" stroke-width="1.5" fill-rule="evenodd"/></g></svg>