<svg xmlns="http://www.w3.org/2000/svg" width="24.958" height="14.262" viewBox="0 0 24.958 14.262"><g transform="translate(-2.25 -9)"><path d="M30.225,10.8a.952.952,0,0,0-.518.15l-4.819,3.042a.477.477,0,0,0-.223.4v4.234a.477.477,0,0,0,.223.4l4.819,3.042a1,1,0,0,0,.518.15h1.159a.474.474,0,0,0,.479-.474V11.274a.478.478,0,0,0-.479-.474Z" transform="translate(-4.655 -0.374)" fill="#fff"/><path d="M15.7,23.262H5.119A2.878,2.878,0,0,1,2.25,20.4V11.863A2.873,2.873,0,0,1,5.113,9H15.7a2.873,2.873,0,0,1,2.863,2.863v8.529A2.866,2.866,0,0,1,15.7,23.262Z" fill="#fff"/></g></svg>