<svg xmlns="http://www.w3.org/2000/svg" width="20.783" height="22.926" viewBox="0 0 20.783 22.926"><g transform="translate(0.75 0.75)"><path d="M0,17.141V4.285A4.285,4.285,0,0,1,4.285,0H8.938a4.285,4.285,0,0,1,3.03,1.255l6.06,6.06a4.285,4.285,0,0,1,1.255,3.03v6.8A4.285,4.285,0,0,1,15,21.426H4.285A4.285,4.285,0,0,1,0,17.141Z" transform="translate(0 0)" fill="none" stroke="#fff" stroke-linejoin="round" stroke-width="1.5"/><path d="M10,0V4.285A4.285,4.285,0,0,0,14.285,8.57H18.57" transform="translate(0.713 0)" fill="none" stroke="#fff" stroke-linejoin="round" stroke-width="1.5"/><path d="M0,.073H1.7a3.316,3.316,0,0,1,.876.088,1.539,1.539,0,0,1,.694.424,2.008,2.008,0,0,1,.439.747,3.381,3.381,0,0,1,.151,1.086,3.024,3.024,0,0,1-.141.979,2.029,2.029,0,0,1-.493.813,1.633,1.633,0,0,1-.653.367,2.811,2.811,0,0,1-.822.1H0ZM.929.852V3.9h.694a2.531,2.531,0,0,0,.562-.044.846.846,0,0,0,.373-.191A.964.964,0,0,0,2.8,3.221,3.019,3.019,0,0,0,2.9,2.377,2.749,2.749,0,0,0,2.8,1.558a1.053,1.053,0,0,0-.264-.446A.884.884,0,0,0,2.109.9,4.212,4.212,0,0,0,1.346.852Z" transform="translate(3.109 12.388)" fill="#fff"/><path d="M4.163,2.407a2.926,2.926,0,0,1,.21-1.18A2.181,2.181,0,0,1,4.8.6,1.808,1.808,0,0,1,5.4.182,2.526,2.526,0,0,1,6.388,0,2.155,2.155,0,0,1,8.014.631a2.414,2.414,0,0,1,.612,1.754A2.415,2.415,0,0,1,8.02,4.13,2.146,2.146,0,0,1,6.4,4.758a2.168,2.168,0,0,1-1.632-.625A2.382,2.382,0,0,1,4.163,2.407Zm.957-.031a1.73,1.73,0,0,0,.361,1.186,1.178,1.178,0,0,0,.916.4,1.163,1.163,0,0,0,.91-.4,1.759,1.759,0,0,0,.358-1.2,1.725,1.725,0,0,0-.348-1.18A1.169,1.169,0,0,0,6.4.794a1.179,1.179,0,0,0-.926.4A1.732,1.732,0,0,0,5.12,2.376Z" transform="translate(3.406 12.383)" fill="#fff"/><path d="M11.964,2.988l.9.286a2.025,2.025,0,0,1-.69,1.12,1.964,1.964,0,0,1-1.221.364,1.982,1.982,0,0,1-1.506-.625,2.4,2.4,0,0,1-.59-1.714A2.509,2.509,0,0,1,9.45.637,2.031,2.031,0,0,1,11.009,0a1.914,1.914,0,0,1,1.372.5,1.815,1.815,0,0,1,.471.847l-.92.22a.954.954,0,0,0-.97-.772,1.052,1.052,0,0,0-.832.367,1.806,1.806,0,0,0-.317,1.19,1.93,1.93,0,0,0,.314,1.243,1.019,1.019,0,0,0,.816.37.931.931,0,0,0,.637-.235A1.367,1.367,0,0,0,11.964,2.988Z" transform="translate(3.741 12.383)" fill="#fff"/></g></svg>