<svg xmlns="http://www.w3.org/2000/svg" width="19.729" height="16.618" viewBox="0 0 19.729 16.618"><g transform="translate(-0.5 -3.388)"><path d="M14.394,27.335V25.723A3.223,3.223,0,0,0,11.17,22.5H4.723A3.223,3.223,0,0,0,1.5,25.723v1.612" transform="translate(0 -8.33)" fill="none" stroke="#500d34" stroke-linecap="round" stroke-linejoin="round" stroke-width="2"/><path d="M13.947,7.723A3.223,3.223,0,1,1,10.723,4.5,3.223,3.223,0,0,1,13.947,7.723Z" transform="translate(-2.777)" fill="none" stroke="#500d34" stroke-linecap="round" stroke-linejoin="round" stroke-width="2"/><path d="M32.418,27.425V25.814A3.223,3.223,0,0,0,30,22.7" transform="translate(-13.188 -8.42)" fill="none" stroke="#500d34" stroke-linecap="round" stroke-linejoin="round" stroke-width="2"/><path d="M24,4.695a3.223,3.223,0,0,1,0,6.245" transform="translate(-10.412 -0.09)" fill="none" stroke="#500d34" stroke-linecap="round" stroke-linejoin="round" stroke-width="2"/></g></svg>