<svg id="txt-file" xmlns="http://www.w3.org/2000/svg" width="187.366" height="259" viewBox="0 0 187.366 259">
  <g id="Group_66" data-name="Group 66" transform="translate(0 0)">
    <path id="Path_18" data-name="Path 18" d="M8.6-3.935A3.921,3.921,0,0,0,4.823.109v250.91A3.921,3.921,0,0,0,8.6,255.063H188.388a3.921,3.921,0,0,0,3.779-4.044V78.209a4.2,4.2,0,0,0-1.067-2.84L120.247-2.361v-.031a3.93,3.93,0,0,0-.288-.309,3.884,3.884,0,0,0-.317-.309,3.813,3.813,0,0,0-.346-.278,3.735,3.735,0,0,0-.346-.216q-.1-.049-.2-.093a3.631,3.631,0,0,0-.375-.154q-.1-.034-.2-.062h-.087a3.553,3.553,0,0,0-.548-.093q-.1-.018-.2-.031H8.6Zm3.779,8.088h103.25l68.978,75.693V246.975H12.381Z" transform="translate(-4.823 3.937)" opacity="0.99"/>
    <path id="Path_19" data-name="Path 19" d="M16.347-3.934A4.047,4.047,0,0,0,12.426.11v78.1a4.047,4.047,0,0,0,4.044,4.044H92.622a4.047,4.047,0,0,0,2.9-6.884L19.373-2.7a4.049,4.049,0,0,0-3.026-1.235Zm4.169,14.015L83.048,74.167H20.516Z" transform="translate(90.681 3.936)" opacity="0.99"/>
  </g>
  <path id="Path_20" data-name="Path 20" d="M38.6,14.968a10.5,10.5,0,0,1-.07,1.3,2.888,2.888,0,0,1-.246.909,1.052,1.052,0,0,1-.387.474.8.8,0,0,1-.492.158H24.6V62.156a1.064,1.064,0,0,1-.141.553,1.045,1.045,0,0,1-.492.4,5.146,5.146,0,0,1-.95.2,7.158,7.158,0,0,1-1.442.119A7.489,7.489,0,0,1,20.13,63.3a5.287,5.287,0,0,1-.95-.2,1.044,1.044,0,0,1-.492-.4,1.064,1.064,0,0,1-.141-.553V17.813H5.745a.959.959,0,0,1-.528-.158,1.169,1.169,0,0,1-.352-.474,5.141,5.141,0,0,1-.246-.909,10.492,10.492,0,0,1-.07-1.3,10.494,10.494,0,0,1,.07-1.3,5.072,5.072,0,0,1,.246-.948,1.153,1.153,0,0,1,.352-.514.959.959,0,0,1,.528-.158H37.4a.8.8,0,0,1,.492.158,1.039,1.039,0,0,1,.387.514,2.957,2.957,0,0,1,.246.948,10.493,10.493,0,0,1,.07,1.3ZM74.224,60.733a4.581,4.581,0,0,1,.528,1.383.856.856,0,0,1-.211.83,1.922,1.922,0,0,1-1.055.356,11.9,11.9,0,0,1-1.9.119,14.951,14.951,0,0,1-1.759-.08,3.3,3.3,0,0,1-1.02-.2,2.04,2.04,0,0,1-.563-.356,2.6,2.6,0,0,1-.317-.593L57.8,41.842,47.564,62.2a2.664,2.664,0,0,1-.387.593,1.59,1.59,0,0,1-.6.4,3.95,3.95,0,0,1-.985.158,14.176,14.176,0,0,1-1.688.08,10.942,10.942,0,0,1-1.829-.119,1.616,1.616,0,0,1-.95-.356,1.065,1.065,0,0,1-.176-.83,5.7,5.7,0,0,1,.563-1.383L53.93,37.218,42.077,14.493a8.643,8.643,0,0,1-.563-1.383.871.871,0,0,1,.176-.83,1.511,1.511,0,0,1,.985-.4,18.2,18.2,0,0,1,1.934-.08,15.121,15.121,0,0,1,1.723.08,3.405,3.405,0,0,1,1.055.2.976.976,0,0,1,.563.4q.176.237.387.553l9.778,19.128,9.707-19.128a5.058,5.058,0,0,1,.352-.553.969.969,0,0,1,.492-.4,2.819,2.819,0,0,1,.95-.2,12.893,12.893,0,0,1,1.618-.08,10.4,10.4,0,0,1,1.759.119,1.672,1.672,0,0,1,.985.356.884.884,0,0,1,.246.83,4.99,4.99,0,0,1-.492,1.383L61.914,37.06Zm36.965-45.766a10.435,10.435,0,0,1-.071,1.3,2.9,2.9,0,0,1-.246.909,1.053,1.053,0,0,1-.387.474.8.8,0,0,1-.492.158H97.19V62.156a1.064,1.064,0,0,1-.141.553,1.045,1.045,0,0,1-.492.4,5.147,5.147,0,0,1-.95.2,7.158,7.158,0,0,1-1.442.119,7.489,7.489,0,0,1-1.442-.119,5.288,5.288,0,0,1-.95-.2,1.044,1.044,0,0,1-.492-.4,1.064,1.064,0,0,1-.141-.553V17.813h-12.8a.959.959,0,0,1-.528-.158,1.169,1.169,0,0,1-.352-.474,5.14,5.14,0,0,1-.246-.909,10.493,10.493,0,0,1-.07-1.3,10.5,10.5,0,0,1,.07-1.3,5.069,5.069,0,0,1,.246-.948,1.153,1.153,0,0,1,.352-.514.959.959,0,0,1,.528-.158h31.654a.8.8,0,0,1,.492.158,1.038,1.038,0,0,1,.387.514,2.957,2.957,0,0,1,.246.948,10.433,10.433,0,0,1,.071,1.3Z" transform="translate(35.813 155.775)" opacity="0.99"/>
</svg>
