<svg xmlns="http://www.w3.org/2000/svg" width="222.792" height="257.068" viewBox="0 0 222.792 257.068">
  <g id="Outline" transform="translate(-6 -2)">
    <path id="Path_23" data-name="Path 23" d="M137.542,176.238H117.336L97.3,138.277l10.433-18.063a17.695,17.695,0,1,0-30.651,0l10.433,18.063-20.038,37.96H47.268a17.566,17.566,0,1,0,15.283,26.225l10-17.656h39.7l10,17.656a17.566,17.566,0,1,0,15.283-26.225Zm-82.446,22a9,9,0,1,1-7.828-13.432H62.692ZM84.5,115.929a9.126,9.126,0,1,1,15.8,0l-7.9,13.685Zm-7.344,60.308,15.244-28.873,15.244,28.873Zm68.213,22a9,9,0,0,1-15.66,0l-7.609-13.432h15.424a9,9,0,0,1,7.832,13.432ZM30.28,10h-15A4.284,4.284,0,0,0,11,14.284V57.129a4.284,4.284,0,0,0,8.569,0V39.991H30.28A15,15,0,0,0,30.28,10Zm0,21.422H19.569V18.569H30.28a6.427,6.427,0,1,1,0,12.853ZM66.7,10H58.129a4.284,4.284,0,0,0-4.284,4.284V57.129a4.284,4.284,0,0,0,4.284,4.284H66.7A21.448,21.448,0,0,0,88.121,39.991V31.422A21.448,21.448,0,0,0,66.7,10ZM79.552,39.991A12.853,12.853,0,0,1,66.7,52.845H62.414V18.569H66.7A12.853,12.853,0,0,1,79.552,31.422ZM126.681,10H100.974a4.284,4.284,0,0,0-4.284,4.284V57.129a4.284,4.284,0,0,0,8.569,0V39.991H122.4a4.284,4.284,0,0,0,0-8.569H105.258V18.569h21.422a4.284,4.284,0,1,0,0-8.569Z" transform="translate(16.422 26.276)"/>
    <circle id="Ellipse_8" data-name="Ellipse 8" cx="4.5" cy="4.5" r="4.5" transform="translate(203 173)"/>
    <path id="Path_24" data-name="Path 24" d="M224.508,2H27.422a4.284,4.284,0,0,0-4.284,4.284V19.138H10.284A4.284,4.284,0,0,0,6,23.422V254.784a4.284,4.284,0,0,0,4.284,4.285H207.37a4.284,4.284,0,0,0,4.284-4.285V241.931h12.853a4.284,4.284,0,0,0,4.284-4.284V6.284A4.284,4.284,0,0,0,224.508,2ZM14.569,27.707H160.241V57.7a12.853,12.853,0,0,0,12.853,12.853h29.991V96.258H14.569ZM168.81,57.7V33.765l28.218,28.218H173.095A4.284,4.284,0,0,1,168.81,57.7Zm51.414,175.663h-8.569V194.8a4.284,4.284,0,1,0-8.569,0v55.7H14.569V104.827H203.086v55.7a4.284,4.284,0,0,0,8.569,0V66.267a4.284,4.284,0,0,0-1.255-3.028L167.555,20.393a4.284,4.284,0,0,0-3.029-1.255H31.707V10.569H220.224Z" transform="translate(0 0)"/>
  </g>
</svg>
