<svg xmlns="http://www.w3.org/2000/svg" width="18.075" height="20.486" viewBox="0 0 18.075 20.486"><path d="M1.205,17.478a1.808,1.808,0,0,0,1.808,1.808H13.862a1.808,1.808,0,0,0,1.808-1.808V4.821H1.205ZM11.451,7.835a.6.6,0,0,1,1.205,0v8.438a.6.6,0,1,1-1.205,0Zm-3.616,0a.6.6,0,0,1,1.205,0v8.438a.6.6,0,1,1-1.205,0Zm-3.616,0a.6.6,0,0,1,1.205,0v8.438a.6.6,0,1,1-1.205,0Zm12.054-6.63h-4.52L11.4.5a.9.9,0,0,0-.81-.5H6.283a.893.893,0,0,0-.806.5l-.354.7H.6a.6.6,0,0,0-.6.6V3.013a.6.6,0,0,0,.6.6h15.67a.6.6,0,0,0,.6-.6V1.808A.6.6,0,0,0,16.273,1.205Z" transform="translate(0.6 0.6)" fill="none" stroke="#b70000" stroke-width="1.2"/></svg>