<svg xmlns="http://www.w3.org/2000/svg" width="22.926" height="22.926" viewBox="0 0 22.926 22.926"><g transform="translate(0.75 0.75)"><path d="M0,4.285A4.285,4.285,0,0,1,4.285,0H17.141a4.285,4.285,0,0,1,4.285,4.285V17.141a4.285,4.285,0,0,1-4.285,4.285H4.285A4.285,4.285,0,0,1,0,17.141Z" transform="translate(0 0)" fill="none" stroke="#fff" stroke-width="1.5"/><path d="M9.356,6.678A2.678,2.678,0,1,1,6.678,4,2.678,2.678,0,0,1,9.356,6.678Z" transform="translate(0.285 0.285)" fill="none" stroke="#fff" stroke-width="1.5"/><path d="M21.426,12.2,18.277,9.938a4.285,4.285,0,0,0-5.37.292L8.519,14.179a4.285,4.285,0,0,1-5.37.292L0,12.2" transform="translate(0 0.651)" fill="none" stroke="#fff" stroke-width="1.5"/></g></svg>