<svg xmlns="http://www.w3.org/2000/svg" viewBox="0 0 512 512"><path d="M438,95a9,9,0,1,1,9-9A9.00984,9.00984,0,0,1,438,95Zm-19-9a9,9,0,1,0-9,9A9.00984,9.00984,0,0,0,419,86ZM32,180V56A24.0275,24.0275,0,0,1,56,32H256a24.0275,24.0275,0,0,1,24,24V180a24.0275,24.0275,0,0,1-24,24H56A24.0275,24.0275,0,0,1,32,180Zm16,0a8.00917,8.00917,0,0,0,8,8H256a8.00917,8.00917,0,0,0,8-8V56a8.00917,8.00917,0,0,0-8-8H56a8.00917,8.00917,0,0,0-8,8Zm22-22H98a8,8,0,0,0,0-16H78V86a8,8,0,0,0-16,0v64A8.00039,8.00039,0,0,0,70,158Zm144,0h28a8,8,0,0,0,0-16H222V126h12a8,8,0,0,0,0-16H222V94h20a8,8,0,0,0,0-16H214a8.00039,8.00039,0,0,0-8,8v64A8.00039,8.00039,0,0,0,214,158Zm-92,0a8.00039,8.00039,0,0,0,8-8V86a8,8,0,0,0-16,0v64A8.00039,8.00039,0,0,0,122,158Zm36.36426-5.61426a7.99967,7.99967,0,0,0,15.27148,0l20-64a7.99977,7.99977,0,0,0-15.27148-4.77148L166,123.17871,153.63574,83.61426a7.99977,7.99977,0,1,0-15.27148,4.77148ZM480,56V368a24.0275,24.0275,0,0,1-24,24H340v72h36a8,8,0,0,1,0,16H136a8,8,0,0,1,0-16h36V392H56a24.0275,24.0275,0,0,1-24-24V232a8,8,0,0,1,16,0v96H356V291.57623A76.1055,76.1055,0,0,1,288,216a8,8,0,0,1,16,0,60,60,0,0,0,120,0,8,8,0,0,1,16,0,76.1055,76.1055,0,0,1-68,75.57623V328h92V56a8.00917,8.00917,0,0,0-8-8H304a8,8,0,0,1,0-16H456A24.0275,24.0275,0,0,1,480,56ZM324,392H188v72H324Zm140-24V344H48v24a8.00917,8.00917,0,0,0,8,8H456A8.00917,8.00917,0,0,0,464,368ZM412,184v32a48,48,0,0,1-96,0V184a48,48,0,0,1,96,0Zm-17.0127,40H380a8,8,0,0,1,0-16h16V196H380a8,8,0,0,1,0-16h15.74109a31.991,31.991,0,0,0-63.48218,0H348a8,8,0,0,1,0,16H332v12h16a8,8,0,0,1,0,16H333.0127a32.00443,32.00443,0,0,0,61.9746,0ZM80,248H260a8,8,0,0,0,0-16H80a8,8,0,0,0,0,16Zm0,32a8,8,0,0,0,0,16H276a8,8,0,0,0,0-16ZM380,78H308a8,8,0,0,0,0,16h72a8,8,0,0,0,0-16Z"/></svg>