<svg xmlns="http://www.w3.org/2000/svg" width="17.644" height="17.643" viewBox="0 0 17.644 17.643"><path d="M21.625,18.317a14.82,14.82,0,0,0-3.1-2.072c-.928-.446-1.268-.436-1.925.037-.547.4-.9.762-1.53.625A9.124,9.124,0,0,1,12,14.634a9.059,9.059,0,0,1-2.274-3.073c-.133-.634.234-.983.625-1.53.473-.657.487-1,.037-1.925a14.527,14.527,0,0,0-2.072-3.1c-.675-.675-.827-.528-1.2-.4a6.822,6.822,0,0,0-1.1.583A3.312,3.312,0,0,0,4.7,6.591c-.262.565-.565,1.617.978,4.364a24.348,24.348,0,0,0,4.281,5.709h0l0,0,0,0h0a24.443,24.443,0,0,0,5.709,4.281c2.747,1.543,3.8,1.24,4.364.978a3.255,3.255,0,0,0,1.392-1.318,6.822,6.822,0,0,0,.583-1.1C22.153,19.144,22.3,18.992,21.625,18.317Z" transform="translate(-4.49 -4.502)" fill="#500d34"/></svg>