<svg xmlns="http://www.w3.org/2000/svg" width="25.748" height="16.385" viewBox="0 0 25.748 16.385"><path d="M19.055,14.522a3.511,3.511,0,1,0-3.511-3.511A3.5,3.5,0,0,0,19.055,14.522Zm-9.363,0a3.511,3.511,0,1,0-3.511-3.511A3.5,3.5,0,0,0,9.693,14.522Zm0,2.341c-2.727,0-8.193,1.369-8.193,4.1v2.926H17.885V20.959C17.885,18.232,12.42,16.863,9.693,16.863Zm9.363,0c-.339,0-.726.023-1.135.059a4.939,4.939,0,0,1,2.306,4.038v2.926h7.022V20.959C27.248,18.232,21.782,16.863,19.055,16.863Z" transform="translate(-1.5 -7.5)" fill="#500d34"/></svg>