<svg xmlns="http://www.w3.org/2000/svg" width="19.706" height="21.019" viewBox="0 0 19.706 21.019"><path d="M9.139,9.81h2.627v2.627H9.139Zm3.941,0h2.627v2.627H13.08Zm3.941,0h2.627v2.627H17.021ZM5.2,17.692H7.826V20.32H5.2Zm3.941,0h2.627V20.32H9.139Zm3.941,0h2.627V20.32H13.08ZM9.139,13.751h2.627v2.627H9.139Zm3.941,0h2.627v2.627H13.08Zm3.941,0h2.627v2.627H17.021Zm-11.823,0H7.826v2.627H5.2ZM19.649,1.928V3.242H17.021V1.928h-9.2V3.242H5.2V1.928H2.571V22.947H22.276V1.928H19.649Zm1.314,19.706H3.884V7.183H20.963Z" transform="translate(-2.571 -1.928)" fill="#500d34"/></svg>