<svg xmlns="http://www.w3.org/2000/svg" width="20.122" height="20.127" viewBox="0 0 20.122 20.127"><path d="M22.961,14.561a2.589,2.589,0,0,1,1.661-2.416A10.264,10.264,0,0,0,23.38,9.153a2.624,2.624,0,0,1-1.053.225,2.584,2.584,0,0,1-2.363-3.637A10.232,10.232,0,0,0,16.977,4.5a2.587,2.587,0,0,1-4.831,0A10.264,10.264,0,0,0,9.153,5.742,2.584,2.584,0,0,1,6.79,9.379a2.539,2.539,0,0,1-1.053-.225,10.49,10.49,0,0,0-1.237,3,2.589,2.589,0,0,1,.005,4.831,10.263,10.263,0,0,0,1.242,2.992,2.585,2.585,0,0,1,3.411,3.411,10.323,10.323,0,0,0,2.992,1.242,2.582,2.582,0,0,1,4.821,0,10.264,10.264,0,0,0,2.992-1.242,2.587,2.587,0,0,1,3.411-3.411,10.323,10.323,0,0,0,1.242-2.992A2.6,2.6,0,0,1,22.961,14.561Zm-8.353,4.187A4.192,4.192,0,1,1,18.8,14.556,4.191,4.191,0,0,1,14.608,18.748Z" transform="translate(-4.5 -4.5)" fill="#500d34"/></svg>