<svg xmlns="http://www.w3.org/2000/svg" width="19.756" height="20.302" viewBox="0 0 19.756 20.302">
  <g id="Group_4272" data-name="Group 4272" transform="translate(-0.559 -12.924)">
    <path id="Path_5583" data-name="Path 5583" d="M19.823,20.82l-7.074-7.394c-.649-.705-.812-.268-.812.073V16.9L6.671,20.991H3.494c-.9,0-.186,1.022-.325.851L7.158,26,.858,32.25a.516.516,0,0,0,0,.705.461.461,0,0,0,.673,0l6.3-6.225L11.8,30.914c-.116-.122.835.535.835-.341V27.217l3.9-5.521h2.946c.487-.024,1.137-.024.348-.876ZM4.63,21.939H6.695l5.033,5.278v2.165l-7.1-7.443Zm7.538,4.305L7.6,21.453,12.261,17.9l3.34,3.551-3.433,4.791ZM16.3,20.723l-3.433-3.6V14.959l5.5,5.764H16.3Z" transform="translate(0 0)" fill="#500d34" stroke="#500d34" stroke-width="0.25"/>
  </g>
</svg>
