<svg xmlns="http://www.w3.org/2000/svg" width="18.897" height="24.453" viewBox="0 0 18.897 24.453"><g transform="translate(0.65 0.65)"><path d="M21.7,9.669h5.267a.287.287,0,0,0,.289-.289h0a1.713,1.713,0,0,0-.619-1.326L22.222,4.373a1.859,1.859,0,0,0-1.192-.428h0a.427.427,0,0,0-.428.428v4.2A1.1,1.1,0,0,0,21.7,9.669Z" transform="translate(-9.662 -3.938)" fill="none" stroke="#500d34" stroke-width="1.3"/><path d="M16.747,8.568V3.938H9.165A1.858,1.858,0,0,0,7.313,5.79V25.239a1.858,1.858,0,0,0,1.852,1.852H23.057a1.858,1.858,0,0,0,1.852-1.852V11.173H19.352A2.609,2.609,0,0,1,16.747,8.568Z" transform="translate(-7.313 -3.938)" fill="none" stroke="#500d34" stroke-width="1.3"/></g></svg>