<svg xmlns="http://www.w3.org/2000/svg" width="22.869" height="18.295" viewBox="0 0 22.869 18.295"><path d="M7.432,12.578a.817.817,0,0,0-.252.039,4.714,4.714,0,0,1-1.463.247,4.718,4.718,0,0,1-1.463-.247A.815.815,0,0,0,4,12.578,4,4,0,0,0,0,16.6a1.711,1.711,0,0,0,1.715,1.693h8A1.711,1.711,0,0,0,11.434,16.6,4,4,0,0,0,7.432,12.578ZM5.717,11.434A3.43,3.43,0,1,0,2.287,8,3.43,3.43,0,0,0,5.717,11.434ZM21.153,0H7.432A1.746,1.746,0,0,0,5.717,1.772V3.43A4.522,4.522,0,0,1,8,4.066V2.287H20.582V12.578H18.295V10.291H13.721v2.287H11a4.554,4.554,0,0,1,1.418,2.287h8.738a1.746,1.746,0,0,0,1.715-1.772V1.772A1.746,1.746,0,0,0,21.153,0Z" transform="translate(0)" fill="#500d34"/></svg>