<svg xmlns="http://www.w3.org/2000/svg" width="21.913" height="22.5" viewBox="0 0 21.913 22.5"><g transform="translate(0.915 0.537)"><ellipse cx="8" cy="4" rx="8" ry="4" transform="translate(-0.165 13.213)" fill="none" stroke="#500d34" stroke-linejoin="round" stroke-width="1.5"/><circle cx="4.5" cy="4.5" r="4.5" transform="translate(3.835 0.213)" fill="none" stroke="#500d34" stroke-linejoin="round" stroke-width="1.5"/><path d="M.574,6.907A3.536,3.536,0,0,1,0,6.86,6.99,6.99,0,0,0,1.741,2.241,6.988,6.988,0,0,0,1.374,0a3.484,3.484,0,0,1,2.7,3.407A3.5,3.5,0,0,1,.574,6.907Z" transform="translate(13.425 2.425)" fill="#500d34"/><path d="M2,4.947v0a4.04,4.04,0,0,0,.142-1.057A5.029,5.029,0,0,0,0,0,9.309,9.309,0,0,1,3.222,1.053c.822.49,1.257,1.067,1.257,1.668,0,.858-.9,1.669-2.473,2.225Z" transform="translate(16.519 13.027)" fill="#500d34"/></g></svg>