<svg xmlns="http://www.w3.org/2000/svg" width="15.003" height="15.004" viewBox="0 0 15.003 15.004">
  <path id="Icon_metro-cross" data-name="Icon metro-cross" d="M17.437,13.981h0L12.885,9.429l4.551-4.551h0a.47.47,0,0,0,0-.663l-2.15-2.15a.47.47,0,0,0-.663,0h0L10.072,6.616,5.521,2.065h0a.47.47,0,0,0-.663,0l-2.15,2.15a.47.47,0,0,0,0,.663h0L7.259,9.429,2.708,13.981h0a.47.47,0,0,0,0,.663l2.15,2.15a.47.47,0,0,0,.663,0h0l4.551-4.551,4.551,4.551h0a.47.47,0,0,0,.663,0l2.15-2.15a.47.47,0,0,0,0-.663Z" transform="translate(-2.57 -1.928)" fill="#e60000"/>
</svg>
