<svg xmlns="http://www.w3.org/2000/svg" width="29.776" height="17.015" viewBox="0 0 29.776 17.015">
  <g id="Icon_ionic-ios-videocam" data-name="Icon ionic-ios-videocam" transform="translate(0 0)">
    <path id="Path_5235" data-name="Path 5235" d="M31.3,10.8a1.135,1.135,0,0,0-.618.179l-5.749,3.629a.569.569,0,0,0-.266.479v5.051a.569.569,0,0,0,.266.479l5.749,3.629a1.2,1.2,0,0,0,.618.179h1.382a.566.566,0,0,0,.572-.565v-12.5a.57.57,0,0,0-.572-.565Z" transform="translate(-3.477 -9.099)" fill="#fff"/>
    <path id="Path_5236" data-name="Path 5236" d="M18.3,26.015H5.673A3.434,3.434,0,0,1,2.25,22.6V12.416A3.428,3.428,0,0,1,5.666,9H18.294a3.428,3.428,0,0,1,3.416,3.416V22.592A3.419,3.419,0,0,1,18.3,26.015Z" transform="translate(-2.25 -9)" fill="#fff"/>
  </g>
</svg>
