<svg xmlns="http://www.w3.org/2000/svg" width="14.279" height="27" viewBox="0 0 14.279 27">
  <g id="Icon_ionic-ios-mic" data-name="Icon ionic-ios-mic" transform="translate(-10.266 -3.375)">
    <path id="Path_5239" data-name="Path 5239" d="M17.654,22.067h0a4.166,4.166,0,0,0,4.154-4.154V7.529a4.166,4.166,0,0,0-4.154-4.154h0A4.166,4.166,0,0,0,13.5,7.529V17.913A4.166,4.166,0,0,0,17.654,22.067Z" transform="translate(-0.249)" fill="#fff"/>
    <path id="Path_5240" data-name="Path 5240" d="M23.636,13.5a.911.911,0,0,0-.909.909v4.478a5.322,5.322,0,1,1-10.644,0V14.409a.909.909,0,1,0-1.817,0v4.478A7.148,7.148,0,0,0,16.5,25.968v3.368H14.16a.909.909,0,1,0,0,1.817h6.49a.909.909,0,0,0,0-1.817H18.314V25.968a7.148,7.148,0,0,0,6.231-7.081V14.409A.911.911,0,0,0,23.636,13.5Z" transform="translate(0 -0.779)" fill="#fff"/>
  </g>
</svg>
