<svg xmlns="http://www.w3.org/2000/svg" width="25.626" height="27.701" viewBox="0 0 25.626 27.701"><g transform="translate(-39.804 -841.627)"><g transform="translate(40 841.627)"><path d="M23.192,22.468l-1.646-1.642-.592-.59-.29-.291L12,11.3v.021L5.146,4.467l-1.5,1.487L12,14.295v1.782a4.258,4.258,0,0,0,5.78,3.968l2,2a7.787,7.787,0,0,1-3.511.857,7.373,7.373,0,0,1-7.5-7.209H6.362a9.839,9.839,0,0,0,8.485,9.461v5.069h2.844V25.149a10.264,10.264,0,0,0,3.811-1.4l5.891,5.879,1.486-1.484-2.093-2.089-3.6-3.584,3.6,3.584Z" transform="translate(-3.651 -2.517)" fill="#fff"/><path d="M21.681,15.809V6.5a4.267,4.267,0,0,0-8.533,0V8.06l8.478,8.469A4.132,4.132,0,0,0,21.681,15.809Z" transform="translate(-4.796 -2.25)" fill="#fff"/><path d="M28.824,17.227H26.416a6.989,6.989,0,0,1-.923,3.475l1.7,1.7A9.117,9.117,0,0,0,28.824,17.227Z" transform="translate(-6.285 -4.056)" fill="#fff"/><path d="M32.056,31.1l-2.1-2.086,2.093,2.089Z" transform="translate(-6.823 -5.478)" fill="#fff"/></g><line x2="24" y2="24" transform="translate(40.617 843.5)" fill="none" stroke="#e00" stroke-width="2.3"/></g></svg>