<svg xmlns="http://www.w3.org/2000/svg" width="18.749" height="24.373" viewBox="0 0 18.749 24.373"><path d="M24.258,7.434a1.226,1.226,0,0,0-1.236,1.207v6.408a.521.521,0,0,1-1.043,0V5.595a1.236,1.236,0,0,0-2.472,0v7.427a.521.521,0,0,1-1.043,0V4.582a1.236,1.236,0,0,0-2.472,0v9.454a.521.521,0,0,1-1.043,0V6.608a1.236,1.236,0,0,0-2.472,0V19.4L10.85,18.013c-1.529-1.33-2.823-1.9-3.878-.92-.709.691.4,1.81,1.57,3.116,1.125,1.259,4.1,5.383,6.637,6.871a4.573,4.573,0,0,0,2.378.668h3.35c2.7,0,4.592-2.22,4.592-5.459V8.641A1.235,1.235,0,0,0,24.258,7.434Z" transform="translate(-6.751 -3.375)" fill="#fff"/></svg>