<svg xmlns="http://www.w3.org/2000/svg" width="34.233" height="22.822" viewBox="0 0 34.233 22.822">
  <path id="Icon_material-screen-share" data-name="Icon material-screen-share" d="M28.527,25.969a2.849,2.849,0,0,0,2.838-2.853L31.38,8.853A2.852,2.852,0,0,0,28.527,6H5.705A2.843,2.843,0,0,0,2.853,8.853V23.116a2.852,2.852,0,0,0,2.853,2.853H0v2.853H34.233V25.969Zm-9.985-5.035V17.81c-3.965,0-6.576,1.212-8.558,3.88.8-3.808,3.01-7.6,8.558-8.373V10.279l5.705,5.32Z" transform="translate(0 -6)" fill="#fff"/>
</svg>
