<svg xmlns="http://www.w3.org/2000/svg" width="26.865" height="22.388" viewBox="0 0 26.865 22.388"><path d="M10.029,3.692,5.879,7.841H1.119A1.119,1.119,0,0,0,0,8.96v6.716A1.119,1.119,0,0,0,1.119,16.8h4.76l4.15,4.149a1.12,1.12,0,0,0,1.911-.791V4.484A1.12,1.12,0,0,0,10.029,3.692ZM20.911,1.31A1.129,1.129,0,0,0,19.672,3.2a10.9,10.9,0,0,1,0,18.244,1.128,1.128,0,1,0,1.239,1.887,13.155,13.155,0,0,0,0-22.017Zm1.476,11.008a8.611,8.611,0,0,0-4-7.287,1.115,1.115,0,0,0-1.545.348,1.133,1.133,0,0,0,.346,1.556,6.374,6.374,0,0,1,0,10.766,1.132,1.132,0,0,0-.346,1.556,1.117,1.117,0,0,0,1.545.348A8.611,8.611,0,0,0,22.387,12.318ZM15.775,8.733a1.12,1.12,0,1,0-1.08,1.962,1.838,1.838,0,0,1,0,3.247,1.12,1.12,0,1,0,1.08,1.962,4.078,4.078,0,0,0,0-7.17Z" transform="translate(0 -1.125)" fill="#fff"/></svg>