<svg xmlns="http://www.w3.org/2000/svg" width="22.696" height="20.378" viewBox="0 0 22.696 20.378"><g transform="translate(-169.893 -717.935)"><g transform="translate(169.894 720.492)"><path d="M29.722,10.8a.866.866,0,0,0-.471.137L24.868,13.7a.433.433,0,0,0-.2.365v3.85a.433.433,0,0,0,.2.365l4.382,2.766a.911.911,0,0,0,.471.137h1.054a.431.431,0,0,0,.436-.431V11.231a.435.435,0,0,0-.436-.431Z" transform="translate(-8.515 -9.503)" fill="#fff"/><path d="M14.485,21.969H4.859a2.617,2.617,0,0,1-2.609-2.6V11.6A2.613,2.613,0,0,1,4.854,9H14.48a2.613,2.613,0,0,1,2.6,2.6V19.36A2.606,2.606,0,0,1,14.485,21.969Z" transform="translate(-2.25 -9)" fill="#fff"/></g><line x2="18.743" y2="18.752" transform="translate(173 718.748)" fill="none" stroke="#e00" stroke-width="2.3"/></g></svg>