<svg xmlns="http://www.w3.org/2000/svg" width="22.696" height="12.969" viewBox="0 0 22.696 12.969"><g transform="translate(0)"><path d="M29.722,10.8a.866.866,0,0,0-.471.137L24.868,13.7a.433.433,0,0,0-.2.365v3.85a.433.433,0,0,0,.2.365l4.382,2.766a.911.911,0,0,0,.471.137h1.054a.431.431,0,0,0,.436-.431V11.231a.435.435,0,0,0-.436-.431Z" transform="translate(-8.515 -9.503)" fill="#fff"/><path d="M14.485,21.969H4.859a2.617,2.617,0,0,1-2.609-2.6V11.6A2.613,2.613,0,0,1,4.854,9H14.48a2.613,2.613,0,0,1,2.6,2.6V19.36A2.606,2.606,0,0,1,14.485,21.969Z" transform="translate(-2.25 -9)" fill="#fff"/></g></svg>