<svg xmlns="http://www.w3.org/2000/svg" width="36" height="27" viewBox="0 0 36 27">
  <g id="Group_4066" data-name="Group 4066" transform="translate(0 -9.5)">
    <path id="Icon_awesome-volume-mute" data-name="Icon awesome-volume-mute" d="M15.119,5,8.864,11.25H1.688A1.687,1.687,0,0,0,0,12.938V23.063A1.687,1.687,0,0,0,1.688,24.75H8.864L15.119,31A1.688,1.688,0,0,0,18,29.811V6.189A1.689,1.689,0,0,0,15.119,5Zm16.4,12.63,3.9-3.578c.443-.443.69-.419.247-.862l-1.6-1.6c-.443-.443-.424.315-.867.758l-4.448,3.384-3.578-3.739c-.443-.443-.292-.846-.735-.4l-1.6,1.6c-.443.443.124.419.567.862l3.771,4.093-3.287,3.642c-.443.443-1.493.587-1.05,1.03l1.6,1.6c.443.443.517-.322.96-.765l3.853-3.545,4.3,3.835c.443.443.069.918.512.475l1.6-1.6c.443-.443-.546-.3-.989-.74Z" transform="translate(0 5)" fill="#fff"/>
    <path id="Icon_metro-cross" data-name="Icon metro-cross" d="M16.2,12.976h0L12.025,8.8,16.2,4.632h0a.431.431,0,0,0,0-.608L14.226,2.054a.431.431,0,0,0-.608,0h0L9.447,6.225,5.275,2.054h0a.431.431,0,0,0-.608,0L2.7,4.024a.431.431,0,0,0,0,.608h0L6.868,8.8,2.7,12.976h0a.431.431,0,0,0,0,.608l1.971,1.971a.431.431,0,0,0,.608,0h0l4.172-4.172,4.172,4.172h0a.431.431,0,0,0,.608,0L16.2,13.583a.431.431,0,0,0,0-.608Z" transform="translate(19.678 14.196)" fill="#ef0000"/>
  </g>
</svg>
